<svg xmlns="http://www.w3.org/2000/svg" width="316.32" height="382.19" viewBox="0 0 316.32 382.19"><defs><style>.cls-1{fill:#fefefe;}.cls-1,.cls-2{stroke:#590e1c;stroke-miterlimit:10;stroke-width:15px;}.cls-2{fill:#590e1c;}</style></defs><g id="Layer_2" data-name="Layer 2"><path class="cls-1" d="M7.82,91.61A102.39,102.39,0,0,1,50.71,74.93L50.05,33.4a237.23,237.23,0,0,1,209.34-3.06v48c6.17-1.19,20.6-3,35.69,4.21a54.05,54.05,0,0,1,13.33,9.06c-5.47,44.68-9,80.65-11.23,104.85-4.11,45-4.37,58.17-14.3,76.6-11.5,21.35-27.68,33.7-59.57,57.53a542,542,0,0,1-67,42.79c-27.75-19.65-50.56-36.86-67.43-49.94-36-27.9-43.83-36-50.73-47C26.74,258.36,23.89,242.08,19.39,206,15.56,175.28,11.33,136.65,7.82,91.61Z"/><rect class="cls-2" x="148.16" y="83.59" width="19.91" height="159.87"/><circle class="cls-2" cx="158.11" cy="283.29" r="14"/></g></svg>