<svg xmlns="http://www.w3.org/2000/svg" width="509.14" height="326.03" viewBox="0 0 509.14 326.03"><defs><style>.cls-1{fill:#31873c;stroke:#31873c;stroke-miterlimit:10;stroke-width:4px;}</style></defs><g id="Layer_7" data-name="Layer 7"><path class="cls-1" d="M4.36,134.18,236,187.11l15.17-8.6Q181.15,163,111.05,148L92.2,144c2.38-2.71,3.87-6.6,5-6.21.56.2.5,1.36,2,4.19.2.37.38.67.51.89L166.43,136l33.36-22.47,47.6,3.79Q261,141.26,274.61,165.2l-65.5,37.13L275,285a38.71,38.71,0,0,1-6.52,15.9c-6.56,9.14-15.48,12.32-14.8,13.89s9.39-.52,17-3.33a89,89,0,0,0,20.74-11q.48-15.59,3.48-16.08c1-.16,2.21.92,3.62,3.27l6.93-9.77a80.56,80.56,0,0,1-13.6-11c-8.38-8.43-10.1-14-17.15-24.4-1.66-2.45-3.25-4.64-4.77-6.61l81.42,53a40.13,40.13,0,0,1-.9,15.46c-3.12,11.77-11.07,18.49-10,19.51s8.21-4.57,14.59-10.34a141.39,141.39,0,0,0,15.45-16.4Q366.15,281,368.37,280q1.26-.54,4.61,3.83,2-6.24,4-12.48c-1.71-.62-4.11-1.47-7-2.44-5.41-1.82-9.41-3-9.74-3.11-4.76-1.44-19.13-10.64-53.56-36.7l24.78-19.41,32.12,7.47a47.12,47.12,0,0,0,8.69,21.11c8.67,11.43,20.55,14.89,42.75,21.56,9.95,3,27.49,8.29,52.73,16.05l-3.2-6.29,5.2,2.47,2.19-3.45q-5.72-2.58-5.48-3.36t8.61.63c-2.94-3.17-7.6-8.42-6.83-9.3s6.15,2.68,9.74,5.15l3.2-4.78q-6.44-4.49-6.05-5.18t8.24,2.64c.5-1.29,1-2.57,1.49-3.86l-7.21-2.71,8.63.25,2.64-3.78-11.86-3.87,12.85,2a6.1,6.1,0,0,0,1.79-4.48c-.44-4-6.88-6.32-6.73-6.62s1.85.47,8.69,3.56c1.46-1.51,2.64-3.18,2.17-4.45-1-2.65-8.12-1.13-8.74-3.19-.54-1.81,4.11-5.81,9.28-6.19a11.77,11.77,0,0,1,5.54,1c.74-1.89,1.35-4.3.21-5.72-1-1.25-2.83-1-2.95-1.69-.27-1.46,8-3.33,7.9-4.76s-10-1.51-17.92-2.31c-17.12-1.73-17.8-6.55-36.78-10.41-18.16-3.7-31.64-2.15-32-5.18-.17-1.44,2.77-2.94,4.68-3.92,6-3.07,11.18-2.36,15.67-2.65a40.9,40.9,0,0,0,18.34-6.94c3-2,7.76-6,18-31.25,2.4-5.95,5.38-13.74,8.46-23l-38.95,3A92.14,92.14,0,0,0,439,91.49c-5.35-12.27-10.73-24.6-22.1-28.89-11.21-4.22-23.41,1.81-47.36,14-22.84,11.66-26.82,17.53-32.64,18.92a13.13,13.13,0,0,1-4.21.29C324.63,95.18,319.56,87,315.57,82c-6-7.58-12.21-11.2-24.12-18.19-7.48-4.39-20-9.66-39.37-9.55-4.05-2.32-4.64-3.26-4.49-3.69.32-.93,4,.44,7.32-1.23,2.58-1.31,3.87-3.94,4.54-5.84q-7.71,1.44-8.27,0-.68-1.7,9-7.49c-6.85,1-9.12.67-9.4-.17-.58-1.67,6.73-5.31,6.11-6.76-.54-1.28-6.58.76-7.21-.55-.4-.81,1.32-2.83,7.54-7.19-.85.06-9.34.6-9.84-1.46-.37-1.57,4-3.9,5.49-4.64-1.06.26-8.35,2.1-8.83.88s5.79-4.65,6.79-5.2c-1.64,0-10.1.19-10.35-1.37S247.09,6,249,5.37c-12,.33-19.58.16-19.66-.76-.07-.73,4.52-1.46,4.44-2-.12-.87-11-1.09-22.74,1.73-5.24,1.26-12,2.94-19.27,7.77-6.06,4-13.16,8.71-13.89,15.73-.61,5.85,3.91,8.24,7.4,17A45,45,0,0,1,188,66l8.94.57,3.18,6.55c-2.53,2.65-34.2,36.92-40.35,42.15-6.78.76-15.79,1.84-26.39,3.3-5,.68-15.76,2.61-37.26,6.47A90.6,90.6,0,0,0,70.41,134c-3.76,2-5.44,3.23-6.16,4.14q-28.35-6-56.72-11.88a4.56,4.56,0,0,0-5.44,3.25A4.47,4.47,0,0,0,4.36,134.18Zm279.11,71c2.72,4.85-12.36,18.21-19.25,24-7.52-8.35-11.9-10.89-10.76-15.31C255.91,204.28,280.48,199.82,283.47,205.14Z"/></g></svg>