<svg xmlns="http://www.w3.org/2000/svg" width="404.52" height="251.95" viewBox="0 0 404.52 251.95"><defs><style>.cls-1{fill:#31873c;stroke:#31873c;stroke-miterlimit:10;stroke-width:4px;}</style></defs><g id="Layer_7" data-name="Layer 7"><path class="cls-1" d="M402.48,112.6a3.58,3.58,0,0,0-4.13-2.79q-22.56,3.33-45.1,6.73c-.53-.75-1.79-1.81-4.65-3.54a71.37,71.37,0,0,0-19.79-8.19c-16.71-4-25.06-6-29-6.79-8.26-1.63-15.29-2.89-20.58-3.8-4.6-4.4-27.91-32.77-29.78-35,.94-1.66,1.87-3.33,2.8-5l7.06,0a35.32,35.32,0,0,1,3.13-16.55c3.14-6.69,6.81-8.36,6.6-13-.26-5.54-5.62-9.56-10.19-13a44.41,44.41,0,0,0-14.79-7C235,2,226.44,1.63,226.3,2.3c-.08.45,3.49,1.23,3.4,1.8-.11.72-6.08.5-15.48-.3,1.43.54,6.73,2.58,6.49,3.7s-6.9.7-8.19.6c.76.48,5.51,3.48,5.09,4.39s-6.08-.84-6.89-1.1c1.11.65,4.46,2.69,4.09,3.9-.48,1.6-7.13.78-7.79.7,4.69,3.71,5.94,5.38,5.6,6-.56,1-5.21-.88-5.7.1s5,4.31,4.5,5.6c-.27.64-2.07.83-7.4-.3q7.3,5,6.7,6.29c-.34.72-2.5.59-6.5-.4a7.93,7.93,0,0,0,3.3,4.8c2.52,1.46,5.48.55,5.7,1.3.1.35-.41,1.06-3.7,2.7-15.22-1-25.29,2.58-31.37,5.69-9.68,5-14.7,7.51-19.79,13.19C155,64.7,150.64,70.89,144.28,71a10.47,10.47,0,0,1-3.3-.42c-4.51-1.37-7.37-6.16-24.78-16.36C98,43.56,88.63,38.26,79.63,41.07S65.71,53.35,61,62.75a72.33,72.33,0,0,0-7.59,27.67L22.88,86.33c2,7.44,4,13.7,5.6,18.48,6.86,20.3,10.43,23.66,12.69,25.38a32.22,32.22,0,0,0,14.09,6.29c3.51.43,7.6.11,12.18,2.8,1.46.86,3.7,2.17,3.5,3.3-.42,2.36-10.94.52-25.38,2.59-15.08,2.17-15.84,5.92-29.37,6.5-6.27.27-14-.21-14.19,1s6.27,3,6,4.09c-.13.53-1.55.26-2.4,1.2s-.6,3-.1,4.5a9.4,9.4,0,0,1,4.4-.5c4,.54,7.52,3.89,7,5.29-.59,1.59-6.13.07-7,2.1-.43,1,.41,2.35,1.49,3.6,5.52-2.11,6.94-2.52,7-2.4s-5.06,1.77-5.6,4.9A4.86,4.86,0,0,0,14,179l10.19-1-9.49,2.49,1.9,3.1,6.79.2-5.79,1.8c.33,1,.67,2.06,1,3.1q6.3-2.3,6.59-1.7t-5,3.79l2.29,3.9c2.94-1.77,7.36-4.29,7.9-3.6s-3.34,4.64-5.8,7c4.42-.55,6.68-.58,6.8-.1s-1.39,1.21-4.46,2.39l1.56,2.8,4.2-1.69q-1.41,2.39-2.8,4.79C50.06,201.38,64.08,198,72,196.13c17.74-4.22,27.23-6.4,34.57-15A37,37,0,0,0,114.4,165l25.58-4.4L158.56,177c-28.24,18.89-40,25.46-43.76,26.37-.26.07-3.46.82-7.79,2-2.3.63-4.22,1.19-5.59,1.6q1.29,5,2.59,10c1.89-2.18,3.16-3.12,3.8-2.8q1.71.85-2.4,13.39a111.61,111.61,0,0,0,11.39,13.59c4.75,4.83,10.19,9.49,11,8.79s-5.08-6.4-7-15.78a31.42,31.42,0,0,1,0-12.19L187.2,184c-1.29,1.48-2.64,3.12-4.06,5-6,7.85-7.61,12.14-14.58,18.38a62.85,62.85,0,0,1-11.19,8l5,8q1.83-2.67,3-2.4,2.32.53,2,12.79a70,70,0,0,0,15.78,9.59c5.84,2.55,12.6,4.55,13.19,3.4s-6.25-4.12-11-11.59a30.58,30.58,0,0,1-4.4-12.79l55.56-61.95-49.76-32.17,23.58-36.37,37.57-.8,25.17,19.19,52.11,8.47c.12-.17.27-.4.45-.68,1.34-2.15,1.35-3.06,1.79-3.2.87-.26,1.86,2.88,3.61,5.11l-15,2.29q-55.75,8.55-111.44,17.53l11.53,7.45,184.37-31A3.52,3.52,0,0,0,402.48,112.6ZM201.13,167.36c.69,3.52-2.87,5.31-9.16,11.53-5.15-4.86-16.39-16-14-19.73C180.54,155.12,199.64,159.75,201.13,167.36Z"/></g></svg>