<svg xmlns="http://www.w3.org/2000/svg" width="286.38" height="351.35" viewBox="0 0 286.38 351.35"><defs><style>.cls-1{fill:#590e1c;}.cls-1,.cls-2,.cls-4{stroke:#000;}.cls-1,.cls-2,.cls-3,.cls-4{stroke-miterlimit:10;stroke-width:3px;}.cls-2{fill:none;}.cls-3{stroke:#fff;}.cls-4{fill:#fefefe;}</style></defs><g id="Layer_4" data-name="Layer 4"><path class="cls-1" d="M65.64,14.52a249.14,249.14,0,0,1,159,0c-7.33,18.52-2.51,36.57,8.68,43.15,6.63,3.9,14.18,3,18.38,2a29.62,29.62,0,0,0,12.77,16.86q-2.68,37.14-5.36,74.29a15.44,15.44,0,0,1,21.44,12.26c.87,6-1.44,14.68-8.42,16.85-4.61,1.43-9.95-.39-13.79-4.34q1.92,5.61,3.83,11.23c-6.46,1-8.26,2.84-8.68,4.34-.76,2.7,2.69,5.06,1.79,8.17-.77,2.64-4.07,3.76-4.86,4.09-10.57,4.37-18.69,50.24-20.42,58.47-3.14,15-12.3,34.95-39.06,56.17q-1.54-4.22-3.07-8.43L145,349.25l-38-39.58-6.13,9.7a189.72,189.72,0,0,1-30.13-33.95,195,195,0,0,1-32.43-84.51A5.75,5.75,0,0,1,40,190.69l-6.38-14.55c-.7.42-7,4-13.38,1.18-6.85-3.1-9.91-12.11-6.94-18.77,3.28-7.38,13.55-11,22.11-6.15Q32.36,115,29.3,77.59L40,61.25a22.26,22.26,0,0,0,15.58,0c7.86-3.18,11-10.45,12.51-14C74.43,32.41,67.19,17.55,65.64,14.52Z"/><path class="cls-2" d="M84.89,34A189.76,189.76,0,0,1,206,34c-5.59,14.11-1.91,27.86,6.61,32.87,5.06,3,10.8,2.28,14,1.56a22.82,22.82,0,0,0,4.87,8.75,22.29,22.29,0,0,0,4.86,4.09l-4.08,56.6a11.75,11.75,0,0,1,16.33,9.33c.67,4.56-1.09,11.19-6.41,12.84-3.51,1.09-7.58-.29-10.51-3.31,1,2.86,2,5.71,2.92,8.56-4.92.78-6.29,2.17-6.61,3.31-.58,2,2.05,3.85,1.36,6.22-.59,2-3.1,2.87-3.7,3.11-8,3.33-14.24,38.28-15.56,44.55-2.39,11.41-9.37,26.63-29.76,42.79L178,258.87,145.31,289l-29-30.15-4.67,7.39a144.61,144.61,0,0,1-23-25.87A148.37,148.37,0,0,1,64,176a4.37,4.37,0,0,1,1.36-7.78l-4.86-11.09c-.54.32-5.37,3.08-10.19.9-5.22-2.36-7.55-9.22-5.29-14.3,2.5-5.62,10.32-8.35,16.84-4.69q-2.34-28.49-4.67-57,4.09-6.21,8.17-12.44a17,17,0,0,0,11.87,0c6-2.42,8.36-8,9.53-10.7C91.58,47.65,86.07,36.33,84.89,34Z"/><path class="cls-3" d="M165.13,47.71a74.36,74.36,0,0,0,10.72,5.11c9.17,3.43,12.25,2.19,14.3,5.11,2.91,4.14,1.25,12.78-3.58,15.83-6,3.8-13.18-3.49-18.89.51-3.92,2.74-5.37,9.53-3.06,12.25,3.71,4.37,16-3,18.89,1,1.79,2.57-1.64,7.6-2,8.17-4.17,6-11.78,6.13-12.77,6.13,5,1.12,12.55,3.65,17.36,10.21,7.35,10,4.19,23.81,6.13,24,1.66.17,1.18-10.08,8.17-21.44,4.28-7,8.3-9.37,8.68-15.83.2-3.4-.82-4.38-.51-9.7.27-4.57.48-8.25,3.07-11.24,3.38-3.91,9.57-5.18,11.1-3.42,1.17,1.34-.49,4.27.64,5,.93.57,2.24-1.3,4.09-1s3.15,2.29,3.57,4.09c.89,3.81-3.12,5.44-4.6,11.23-1.32,5.18,1.31,6.1,0,10.21-2,6.25-8.46,5.33-11.23,11.24s2.76,9.07,1,17.36c-1.87,9-9.76,12-8.17,15.83,1.22,2.91,6.73,3.28,11.24,3.57,10.87.72,13.7-3.25,18.38-1,6.74,3.21,9.62,15.6,5.62,20.94-1.31,1.74-3.66,3.15-4.6,2.55-1.53-1,1.4-6.73,0-7.66-1.68-1.11-6.29,6.83-12.54,7.27-5,.34-9.38-4.15-12.48-8.29-18.11-3.88-24.74-1.49-27.07,2-2.78,4.23,1.32,9-1.53,15.83-3.14,7.53-10.49,7.27-16.34,12.77-9.19,8.65-7,24.26-3.57,48,1.63,11.44,5.83,40.82,16.85,42.38,4,.58,6.81-2.9,11.23-1,5.36,2.28,8.17,10.3,6.13,12.77-.86,1-1.94.31-6.13,1.53-3.7,1.08-4.1,2-6.12,2-2.91,0-3.65-1.87-6.64-3.06-5.78-2.31-9.47,2.26-13.79.51-3.86-1.56-4.16-6.52-6.13-11.75-5-13.35-19.59-24.81-31.15-23.49-5.09.59-11.14,3.83-12.25,8.69-1.21,5.26,3.69,11.13,8.17,13.78,4.87,2.89,7.45.92,11.23,4.09,4.76,4,5.9,11.46,4.6,12.25-.65.4-2.08-.73-3.25-1.64-2.62-2.05-3.39-4.14-3.9-4-1,.34,1.85,9.25,0,10.21-1.49.77-3.88-4.72-9.19-5.62-3.77-.64-4.7,1.76-9.19,2-6.79.43-14.4-4.43-14.81-9.19-.26-2.92,2.25-5.28,3.06-6.12,11.84-12.34-7.26-45.31,2.55-75.58,5.21-16.06,13.47-15.68,17.88-35.23,2.24-9.94,4.64-20.59-.51-30.64-4.6-9-12.25-11.7-12.77-20.94-.36-6.37,2.88-12.14,2.55-12.25-.48-.18-5,13.25-7.66,12.76-1.79-.33-.27-6.77-4.59-10.72-3.08-2.81-6.58-2-7.15-4.09-.84-3,6.27-6.72,5.62-8.17-.41-.88-3.61-.69-12.77,2.05q6.9-8.69,13.79-17.36L89.72,91.63q11.73-9,10.9-10.38-.63-1-8.51,2.38Q107,63,104.7,60.82c-.68-.64-2.43-.13-5.27,1.53a34.18,34.18,0,0,1,3.91-6,34.9,34.9,0,0,1,19.23-11.92A34,34,0,0,1,135,44.14l-6.78-5.26a67.27,67.27,0,0,1,22.1,4.75c-1.5-3.43-1.31-4.56-.85-4.94C150.84,37.55,155.45,42.37,165.13,47.71Z"/><path class="cls-4" d="M3.47,213.78,16.74,224.5,13.68,294a583,583,0,0,1,258.89,0,173.94,173.94,0,0,1,11.75-78.13,729.61,729.61,0,0,0-280.85-2Z"/><path d="M76.86,235.63A19.48,19.48,0,0,1,86,232.08a10.19,10.19,0,0,1,6.27,1,4.36,4.36,0,0,1,2.47,4,5.62,5.62,0,0,1-1.62,3.86,10.85,10.85,0,0,1-4.41,2.8,27.78,27.78,0,0,0,3.36,6.3,18.63,18.63,0,0,0,4.27,4.53l-.27.12a26.29,26.29,0,0,0-5.24,3.13l-.27.21-.09-.57a47.49,47.49,0,0,0-3.22-11.45,1.34,1.34,0,0,0-.07-.18,14.61,14.61,0,0,1-3.32,1.3l-.14,0v6.73l3.16,3q-4.65.51-9.28,1.09l-.28-.45c2.84-.36,5.69-.69,8.53-1L83.26,254v-7.25l.38-.1a13.17,13.17,0,0,0,3.43-1.2,1.49,1.49,0,0,1-.13-.25l-.18-.5a1.26,1.26,0,0,0-.09-.21,34.59,34.59,0,0,1-4.2,1.18l-.19.06v8l2,1.9q-4,.45-7.93,1l2.34-2.43v-6l-.15,0c-.69.24-1.32.5-1.88.76l-.14.07-.17-.34a12.31,12.31,0,0,1,1.24-.57l1-.35.15-.05v-.94a10.22,10.22,0,0,0-2.64.8l-.2.1a12.43,12.43,0,0,1,.36-1.22,8.31,8.31,0,0,0,.25-.84s0-.09.06-.17c.53,0,1-.07,1.25-.1a7.21,7.21,0,0,0,.9-.17V236.3a8.78,8.78,0,0,0-1.71-.63Zm5.42-1.12v9.69a6.07,6.07,0,0,0,1-.2v-8.86a10.13,10.13,0,0,1,2.37-.54c2.33-.26,3.92.34,4.76,1.78a8.59,8.59,0,0,0-2.34-1.23,6.16,6.16,0,0,0-2.4-.13,7.77,7.77,0,0,0-1.92.43v8.49l.2-.06a13.37,13.37,0,0,0,5.24-2.62,5,5,0,0,0,1.72-3.81,3.7,3.7,0,0,0-1.54-3.14,5.32,5.32,0,0,0-3.9-.87A7.05,7.05,0,0,0,82.28,234.51Zm8.66,9.82a19,19,0,0,0,4,6.84,16.73,16.73,0,0,0,4.54,3.53,31.06,31.06,0,0,0-7.72,4.12l-.16.12-.36-.25a27.79,27.79,0,0,1,7.31-4q-5.18-3-8.14-10.23l-.11-.29c3.67-1.78,5.5-4.08,5.5-6.94a6.37,6.37,0,0,0-1.42-3.71,4.92,4.92,0,0,1,1.82,4C96.21,240.27,94.45,242.53,90.94,244.33Z"/><path d="M124.51,222.7l.11.14-.18.21a41.71,41.71,0,0,0-5.31,7.14l-1.15,2q-3.35,5.58-6.69,11.2v7.31c.87.72,1.73,1.45,2.6,2.19-2.92.22-5.83.45-8.75.71.86-.87,1.72-1.75,2.59-2.62v-7.3l-4.32-6.27-.93-1.41a20.86,20.86,0,0,0-2.1-2.72,16.88,16.88,0,0,0-2.41-2l-.2-.14c3-.29,6-.57,9.07-.82l-2.22,2.51q3,4.26,6,8.53l.58-1-5.34-7.68,1.89-2,.37.26-1.63,1.65,5,7.27q2-3.33,4-6.65,1.74-2.91,1.74-4.27a3.7,3.7,0,0,0-1.53-2.52,38.62,38.62,0,0,0,8.61-3.69Zm.81,1v.74l-.18.19a26.7,26.7,0,0,0-2.6,3c-.72,1-1.8,2.69-3.23,5.06q-3.25,5.34-6.51,10.72v7.06l3.2,3.63q-5.62.41-11.26.9c-.07-.16-.14-.31-.22-.47q5.27-.47,10.53-.85l-2.74-3.17V243.4q3.31-5.51,6.64-11c.35-.58.7-1.15,1-1.73A32.39,32.39,0,0,1,125.32,223.73Z"/><path d="M123.4,229.1q9.34-.58,18.69-.94a24.07,24.07,0,0,0-1.59,2.39,23.09,23.09,0,0,0-1.22,2.76c-.05.12-.09.25-.14.37a7.2,7.2,0,0,0-2.35-3.07,7.68,7.68,0,0,0-3.92-.53l-1,.07-1.74.08h-.67v8.42l1.1,0v-7.44l.52,0c.74-.08,1.54-.14,2.38-.18q3.67-.18,4.59,1.7a4.37,4.37,0,0,0-1.92-1.06,12.23,12.23,0,0,0-3.2-.14c-.51,0-1.15.09-1.92.19v6.94l2.72-.14,2.88-3.17v7.53l-3-2.84-4.12.22v9.06l2.3,2.22q-4.41.22-8.84.51l2.94-2.52v-7.74a3.55,3.55,0,0,0-2.43,1.2l-.34-.36a3.78,3.78,0,0,1,2.77-1.32v-.85h-.54a4,4,0,0,0-2.9,1.55,2.39,2.39,0,0,0-.13-.28,4,4,0,0,1,3.57-2.78v-7.59Zm11.27,12.32-3.69.18v7.7l3.17,3.77c-3.48.17-7,.36-10.43.58l-.45-.46c3.29-.21,6.58-.39,9.87-.56l-2.61-3.09v-8.4l3.62-.18Zm3.22-5.58v7.77l-.46-.25v-7.77Zm5.57-6.63a15.28,15.28,0,0,0-3.24,5.63l-.38-.24a13.11,13.11,0,0,1,3.3-5.69Z"/><path d="M143.73,228.1q9.36-.33,18.71-.44a21.78,21.78,0,0,0-1.59,2.34,25,25,0,0,0-1.22,2.74c0,.12-.1.24-.14.36a7.47,7.47,0,0,0-2.36-3.13,7.76,7.76,0,0,0-3.92-.64l-1,0-1.75,0h-.67v8.42l1.1,0v-7.43l.52,0c.75-.05,1.54-.09,2.38-.11,2.45-.05,4,.56,4.6,1.82a4.39,4.39,0,0,0-1.92-1.11,12.7,12.7,0,0,0-3.2-.23c-.52,0-1.16.06-1.93.14v6.94l2.72-.06q1.44-1.56,2.89-3.1v7.54l-3-2.93-4.13.11v9.06l2.31,2.28q-4.43.12-8.85.27l2.94-2.44v-7.73a3.46,3.46,0,0,0-2.44,1.12l-.34-.36a3.68,3.68,0,0,1,2.78-1.25v-.85c-.26,0-.44,0-.55,0a3.91,3.91,0,0,0-2.9,1.47l-.12-.29a3.89,3.89,0,0,1,3.57-2.68v-7.59ZM155,240.72l-3.7.08v7.71l3.17,3.84q-5.22.12-10.43.3l-.45-.47c3.29-.12,6.58-.21,9.87-.29l-2.61-3.16v-8.4l3.62-.09Zm3.22-5.5V243l-.47-.26V235Zm5.57-6.47a14.71,14.71,0,0,0-3.24,5.54l-.38-.25a12.64,12.64,0,0,1,3.3-5.6Z"/><path d="M163.69,227.65q4.26,0,8.54,0l-2.41,2.44v18.73l2.27,1.91-8.4,0,2.5-2.08V229.88Zm9.35,1-1.83,1.82q0,9.16,0,18.33l3,3.39c-3.12,0-6.25,0-9.37,0l-.45-.48c2.92,0,5.84,0,8.76,0L170.7,249V230.3l2-2Z"/><path d="M195.54,228a6.94,6.94,0,0,0-2.65,1.86A7.42,7.42,0,0,0,192,234v17l-3.05-.07q-4.24-8.35-8.51-16.64v10.58l.21,2.59a4.1,4.1,0,0,0,1.64,2.69l.15.13q-2.49-.87-2.49-5.35c0-.56,0-1.12,0-1.69v-9.84c-.33-.63-.65-1.27-1-1.9v10.37c0,3.28.21,5.44.64,6.46a4.44,4.44,0,0,0,3,2.27l1.57,1.7c-3.26,0-6.51-.09-9.77-.11l-.29-.48q4.51,0,9,.09l-.94-1c-2.8,0-5.6-.07-8.4-.08a5.06,5.06,0,0,0,2.92-2.11,10.29,10.29,0,0,0,.72-4.56v-14.4l-2.39-2c3,0,6.08.05,9.12.1l-2.56,1.67Q186,238,190.4,246.56V244.4q-3.74-7.36-7.48-14.69l2.53-1.67.34.35-2.24,1.47q3.44,6.76,6.85,13.57v-9.36a11.26,11.26,0,0,0-.51-4.19,5.41,5.41,0,0,0-2.53-2.09C190.09,227.85,192.81,227.93,195.54,228Zm.63,1.35c-.11.17-.22.35-.32.53A2.61,2.61,0,0,0,194,231a6.3,6.3,0,0,0-.49,2.93v18.55l-3.88-.1c-.08-.17-.15-.33-.23-.49L193,252V234.13a6.71,6.71,0,0,1,.66-3.52A3.45,3.45,0,0,1,196.17,229.37Z"/><path d="M197.68,228.09c2.37.08,4.74.18,7.1.28q5.21.24,7.71,2.39,3.73,3.15,3.73,9.46,0,6.53-3.26,9.26a8.07,8.07,0,0,1-3.3,1.67,17.79,17.79,0,0,1-4.86.31c-2.55-.11-5.1-.22-7.66-.3l2.47-1.8V230.23C199,229.52,198.33,228.8,197.68,228.09Zm.58,24.58-.27-.49q3.3.1,6.6.26,4.86.23,7.38-1c3.61-1.73,5.42-5.32,5.42-10.83,0-3.68-.81-6.47-2.43-8.35l-.72-.83-.22-.27c2.55,1.74,3.82,4.88,3.82,9.39q0,7.11-3.78,10.25c-1.93,1.61-5.09,2.3-9.47,2.11C202.48,252.83,200.37,252.75,198.26,252.67Zm4.88-22.86V250l1,0V231a10.27,10.27,0,0,1,1.72-.06,7.18,7.18,0,0,1,2.33.41,5.26,5.26,0,0,1,1.72,1.17,9.81,9.81,0,0,0-4.09-1.1c-.31,0-.72,0-1.22,0v18.58a10.64,10.64,0,0,0,3.06-.19,4.58,4.58,0,0,0,2-1.18c1.74-1.68,2.61-4.59,2.61-8.75s-.94-6.9-2.83-8.48Q207.7,230,204,229.85Z"/><path d="M229.52,229.65a9.25,9.25,0,0,1,7,3.89,14.91,14.91,0,0,1,2.61,9.08q0,5.24-2.58,8.12a7.91,7.91,0,0,1-6.93,2.54,10.14,10.14,0,0,1-6.12-2.64q-3.93-3.51-3.94-9.86,0-5.43,2.7-8.45A8.33,8.33,0,0,1,229.52,229.65Zm0,1.55c-4.05-.31-6.08,3.12-6.08,10.24,0,6.59,2,10,6,10.32a4.21,4.21,0,0,0,4.24-2.28c1-1.66,1.46-4.17,1.46-7.53q0-5.7-1.4-8.07A5.16,5.16,0,0,0,229.52,231.2Zm5.74-.16a10,10,0,0,1,4.06,4.6,16.4,16.4,0,0,1,1.49,7.08c0,3.87-1,6.89-2.94,9.09a8.83,8.83,0,0,1-7.72,2.92,9.9,9.9,0,0,1-5.72-2.5v-.09A9.94,9.94,0,0,0,230,254.2a8.64,8.64,0,0,0,7.41-2.79,11.94,11.94,0,0,0,2.9-8.43,17.6,17.6,0,0,0-1.32-7,10.8,10.8,0,0,0-3.75-4.74Zm-1.89,3.17-.31-.21a7,7,0,0,0-3.16-1.2c-3.16-.25-4.73,2.74-4.73,8.94q0,6.81,2.93,9.23l-.16.17a7.75,7.75,0,0,1-2.57-3.54,17.31,17.31,0,0,1-.76-5.68c0-6.66,1.75-9.87,5.25-9.6A4.36,4.36,0,0,1,233.37,234.21Z"/><path d="M243.25,233.24a16.52,16.52,0,0,1,9.16-1.53,12,12,0,0,1,6.28,2.36,5.65,5.65,0,0,1,2.46,4.5,4.45,4.45,0,0,1-1.61,3.5,8.33,8.33,0,0,1-4.42,1.83,36.76,36.76,0,0,0,3.37,7,25.68,25.68,0,0,0,4.26,5.47l-.27.06a20.52,20.52,0,0,0-5.24,2l-.27.15-.09-.58a55.87,55.87,0,0,0-3.21-12.17c0-.06,0-.12-.07-.19a12.43,12.43,0,0,1-3.32.57h-.15V253l3.16,3.72q-4.64-.51-9.28-1l-.29-.51c2.85.27,5.7.57,8.55.87-.87-1-1.73-2-2.6-3v-7.25H250a11.53,11.53,0,0,0,3.43-.44,2.24,2.24,0,0,1-.12-.29l-.18-.54s0-.11-.09-.22a33.33,33.33,0,0,1-4.2.25l-.2,0v8l2,2.36c-2.65-.28-5.29-.55-7.94-.8l2.33-1.92v-6H245a17.43,17.43,0,0,0-1.89.34l-.14,0-.16-.37a8.5,8.5,0,0,1,1.24-.3l.95-.14.14,0v-.94a9,9,0,0,0-2.64.22l-.2,0a9.7,9.7,0,0,1,.36-1.14,7.38,7.38,0,0,0,.26-.78l0-.16q.81.14,1.26.18a7,7,0,0,0,.9,0v-8.85a12,12,0,0,0-1.71-1Zm5.43.07V243a5.48,5.48,0,0,0,1,0v-8.85a8.8,8.8,0,0,1,2.37,0c2.33.25,3.92,1.2,4.75,2.83a11.23,11.23,0,0,0-2.33-1.75,6.7,6.7,0,0,0-2.4-.66,7.26,7.26,0,0,0-1.93,0v8.49l.2,0a10.57,10.57,0,0,0,5.25-1.47,4,4,0,0,0,1.72-3.43,4.65,4.65,0,0,0-1.55-3.47,6.4,6.4,0,0,0-3.89-1.74A6.25,6.25,0,0,0,248.68,233.31Zm8.67,11.74a24.93,24.93,0,0,0,4,7.72,22.88,22.88,0,0,0,4.53,4.54,24.41,24.41,0,0,0-7.71,2.41l-.16.09-.36-.33a21.91,21.91,0,0,1,7.3-2.43q-5.16-4.11-8.12-12c0-.11-.07-.22-.11-.32,3.66-1,5.49-2.87,5.49-5.73a7.8,7.8,0,0,0-1.42-4,6.12,6.12,0,0,1,1.81,4.43C262.6,242.15,260.85,244,257.35,245.05Z"/><path class="cls-4" d="M29.75,202.87l49.53-6.13L70.6,290.18l-46,8.17Q27.21,250.6,29.75,202.87Z"/><path d="M67.57,223.85l-6.21,12.22q-.6-5.2-3.27-8A9.38,9.38,0,0,0,51,225.34a11.29,11.29,0,0,0-9.72,4.85q-3.47,4.86-3.47,13.59Q37.84,263,53.59,263h5.35V245.77H50.57a17.79,17.79,0,0,1-3.91-.3,5.42,5.42,0,0,1-2.27-1.29v-.83a6.42,6.42,0,0,0,2.39,1.18,18.76,18.76,0,0,0,3.89.28h8.27V243H48.21q-5,0-5-3.59a3.57,3.57,0,0,1,.83-2.39,2.5,2.5,0,0,1,2-1,2.09,2.09,0,0,1,1.51.63,2,2,0,0,1,.65,1.5c0,1-.35,1.53-1.06,1.69l-.8.17c-.27.06-.4.17-.4.33s.37.43,1.1.43h23l-4.58,4.48v16.38l4.25,3.66H49.47a20.36,20.36,0,0,1-7-1,17.47,17.47,0,0,1-5.58-3.66q-6.67-6.1-6.67-16.38,0-10.59,6.31-16.54a18.42,18.42,0,0,1,13.09-5.21,30.27,30.27,0,0,1,7.77,1.19,29.19,29.19,0,0,0,5.91,1.23A9.53,9.53,0,0,0,67.57,223.85ZM58.94,231l-.6-.43c-2.53-1.8-4.83-2.69-6.91-2.69a9,9,0,0,0-6.54,2.69A11.54,11.54,0,0,0,42,235.77a33.68,33.68,0,0,0-.88,8.51q0,6.71,1.33,10.26A15,15,0,0,0,47.34,261v.37a13,13,0,0,1-5.54-6.46q-1.69-4.17-1.7-11.31,0-7.87,3-12.24a9.45,9.45,0,0,1,8.3-4.37,9.09,9.09,0,0,1,7.58,3.85Zm12.62,11.69-3.42,3.43v15.57L73.65,268l-13.18-.1-12,.13c-.76,0-1.33,0-1.73-.06a8.75,8.75,0,0,1-4.22-1.83h.7a15.67,15.67,0,0,0,6.18,1l1.66,0H71.79l-4.58-5.08V245.77L71,241.92Zm-2-16.74L63.89,237.1l-.8-.36,5.71-11.2Z"/></g></svg>