<svg xmlns="http://www.w3.org/2000/svg" width="259.73" height="352.75" viewBox="0 0 259.73 352.75"><defs><style>.cls-1{fill:#cec52c;}.cls-1,.cls-2,.cls-3,.cls-5{stroke:#000;}.cls-1,.cls-2,.cls-3,.cls-4,.cls-5{stroke-miterlimit:10;stroke-width:3px;}.cls-2,.cls-4{fill:none;}.cls-4{stroke:#fefefe;}.cls-5{fill:#fefefe;}</style></defs><g id="Layer_4" data-name="Layer 4"><path class="cls-1" d="M22.28,38.79A228.36,228.36,0,0,0,83.71,24.06,228.51,228.51,0,0,0,126.45,1.77a288.62,288.62,0,0,0,38.16,18.72,289.45,289.45,0,0,0,67.54,18A20.88,20.88,0,0,0,219.9,58.45,21,21,0,0,0,237.52,77.6c-1.27,6.88-3.21,18.22-4.91,32.31-6.55,54.28-4.92,111-4.29,128.54,1.39,38.29,3.61,43.92-2.68,52.44-13.72,18.57-39.49,12.42-72.38,35.64A126.42,126.42,0,0,0,128,350.28a98.44,98.44,0,0,0-18.89-19.92c-30.6-24.26-53.66-11.84-72.51-30.63C21,284.18,20.67,259.64,20.24,226.19c-.27-20.76,2.51-30.32,4.08-46.46,2.27-23.24,1.77-57.26-12.25-101.11,1-.14,12.53-2,17.36-12.26C33.66,57.4,30.89,45.88,22.28,38.79Z"/><path class="cls-2" d="M39.85,62.31A188.82,188.82,0,0,0,90.75,50.1a188.27,188.27,0,0,0,35.42-18.47,238.69,238.69,0,0,0,31.62,15.52,240.16,240.16,0,0,0,56,15,17,17,0,0,0,4.45,32.37c-1,5.7-2.66,15.1-4.07,26.77-5.43,45-4.08,92-3.55,106.51,1.15,31.73,3,36.39-2.22,43.45-11.37,15.39-32.73,10.29-60,29.54a104.76,104.76,0,0,0-20.94,19.67,82.09,82.09,0,0,0-15.66-16.5c-25.35-20.1-44.46-9.81-60.08-25.39-12.92-12.88-13.18-33.21-13.54-60.93-.22-17.2,2.08-25.12,3.38-38.5,1.88-19.26,1.47-47.44-10.15-83.78.8-.11,10.38-1.68,14.38-10.15C49.28,77.73,47,68.19,39.85,62.31Z"/><path class="cls-3" d="M118.84,107.92A124.23,124.23,0,0,1,160,136.19c6.9,7.2,29.8,31.09,32.34,64.86,1.63,21.66-5.73,39.39-2,40.67s13.51-16.28,13.95-16-11.3,18.35-9.53,19.75C196.1,246.55,204.83,237,206,238s-7.68,13.3-6.81,14c.61.46,5.15-5.64,6.81-4.77,1.21.64.65,4.92-.77,8.34-3.41,8.21-13.78,16.19-22.47,14.68-2.16-.37-4-1.3-5.87-.25-3.34,1.88-3.37,8.24-4,8.17-.38-.05.22-2.71-.89-3.45-2-1.34-7.55,5-9.19,3.83-1.34-.95,1.09-6.09.25-6.51-1.05-.54-5.6,7.31-7.15,6.64-1-.45.35-4.12-1-5-1.93-1.22-7.26,4.44-7.91,3.83s3.72-5.58,3.06-6.26-7.78,5.49-8.55,4.73c-.6-.59,2.14-5.66,6.76-9.45,9.64-7.89,21.24-5.06,21.83-8.17.68-3.52-13.79-9.3-14.29-8.43-.39.68,7.83,4.75,7,7.66-.53,1.89-4.58,2.33-10.21,2.94-5.88.64-8.82.95-11.88.13-7.24-2-11.28-8.19-12.72-10.73,4.37,7.67,4,11.17,2.72,12.94s-3,1.26-7.49,4.09a81.72,81.72,0,0,0-7.15,5.78c-4.5,3.84-5.47,4.89-7.14,4.77-2.48-.18-3.17-2.68-5.11-2.38-2.62.4-3.78,5.31-4.43,5.1s.84-4.37-.34-5.1c-1.66-1-7.18,5.7-8.51,4.76-.86-.61.84-3.89,0-4.42-1.07-.69-4.75,4.17-6.12,3.4-1.11-.62.65-4.1-1-5.79-1.42-1.43-3.91-.12-4.42-1-.79-1.37,3.82-6.68,10.55-10.55,7-4,10.91-3.41,12.26-6.47,1.83-4.15-3.26-10.13-4.77-11.91-16.84-20-49.33-58.55-43.57-83.41,1.46-6.33,10.48-9.81,9.87-18.38a16.06,16.06,0,0,0-2-6.47c-7.72-15.3-9.83-32.58-10.22-39.83-.48-9.11.76-20.51,4.09-21.11s4.75,10,14,14c5.7,2.44,13.08,1.42,18.72-1.7,8-4.45,6.82-14.05,11.23-14.3,3.61-.2,8.13,5.54,8.85,10.73.43,3-.66,4.11.43,6.5,1.48,3.25,4.37,3.16,6.72,6.26,2.14,2.82,1.51,5.2,2.22,8.51,2.22,10.39,13.62,11,14.29,18.73.47,5.31-4.34,11.39-9.36,12.93s-8.16-2.31-14.3-.51c-4.16,1.22-5.72,3.88-8.17,5.79-4.25,3.31-12.37,5.29-29.44-1"/><path class="cls-4" d="M118.84,107.92A124.23,124.23,0,0,1,160,136.19c6.9,7.2,29.8,31.09,32.34,64.86,1.63,21.66-5.73,39.39-2,40.67s13.51-16.28,13.95-16-11.3,18.35-9.53,19.75C196.1,246.55,204.83,237,206,238s-7.68,13.3-6.81,14c.61.46,5.15-5.64,6.81-4.77,1.21.64.65,4.92-.77,8.34-3.41,8.21-13.78,16.19-22.47,14.68-2.16-.37-4-1.3-5.87-.25-3.34,1.88-3.37,8.24-4,8.17-.38-.05.22-2.71-.89-3.45-2-1.34-7.55,5-9.19,3.83-1.34-.95,1.09-6.09.25-6.51-1.05-.54-5.6,7.31-7.15,6.64-1-.45.35-4.12-1-5-1.93-1.22-7.26,4.44-7.91,3.83s3.72-5.58,3.06-6.26-7.78,5.49-8.55,4.73c-.6-.59,2.14-5.66,6.76-9.45,9.64-7.89,21.24-5.06,21.83-8.17.68-3.52-13.79-9.3-14.29-8.43-.39.68,7.83,4.75,7,7.66-.53,1.89-4.58,2.33-10.21,2.94-5.88.64-8.82.95-11.88.13-7.24-2-11.28-8.19-12.72-10.73,4.37,7.67,4,11.17,2.72,12.94s-3,1.26-7.49,4.09a81.72,81.72,0,0,0-7.15,5.78c-4.5,3.84-5.47,4.89-7.14,4.77-2.48-.18-3.17-2.68-5.11-2.38-2.62.4-3.78,5.31-4.43,5.1s.84-4.37-.34-5.1c-1.66-1-7.18,5.7-8.51,4.76-.86-.61.84-3.89,0-4.42-1.07-.69-4.75,4.17-6.12,3.4-1.11-.62.65-4.1-1-5.79-1.42-1.43-3.91-.12-4.42-1-.79-1.37,3.82-6.68,10.55-10.55,7-4,10.91-3.41,12.26-6.47,1.83-4.15-3.26-10.13-4.77-11.91-16.84-20-49.33-58.55-43.57-83.41,1.46-6.33,10.48-9.81,9.87-18.38a16.06,16.06,0,0,0-2-6.47c-7.72-15.3-9.83-32.58-10.22-39.83-.48-9.11.76-20.51,4.09-21.11s4.75,10,14,14c5.7,2.44,13.08,1.42,18.72-1.7,8-4.45,6.82-14.05,11.23-14.3,3.61-.2,8.13,5.54,8.85,10.73.43,3-.66,4.11.43,6.5,1.48,3.25,4.37,3.16,6.72,6.26,2.14,2.82,1.51,5.2,2.22,8.51,2.22,10.39,13.62,11,14.29,18.73.47,5.31-4.34,11.39-9.36,12.93s-8.16-2.31-14.3-.51c-4.16,1.22-5.72,3.88-8.17,5.79-4.25,3.31-12.37,5.29-29.44-1"/><path class="cls-5" d="M57.52,181.43c4.5-6.44,9.8-10,55.83-25.87,40-13.8,57.72-18.65,79.66-21.45,17.15-2.19,31-2.38,44.59,4.43,4.23,2.1,18.49,9.22,20.43,21.44,1.21,7.64-3.35,11.27-6.13,21.45-2.09,7.64-3.23,19.14,2,35.06a53.18,53.18,0,0,0-18-12.93c-11.68-5-22.62-4.48-33.36-3.07a215.87,215.87,0,0,0-53.79,14.3c-20.35,9-49.73,20.58-90.89,33C53.4,236.74,41.74,204,57.52,181.43Z"/><path d="M76.56,194.91,73.84,198q1,5.08,2,10.17a28.67,28.67,0,0,1,.59,4.08,4.85,4.85,0,0,1-.37,2.2c-.71,1.57-2.45,2.68-5.25,3.29-3,.65-5.17.4-6.66-.67q-1.79-1.26-2.82-5.66-1.19-5.1-2.39-10.2l-2.86-1.35q4.2-.9,8.39-1.89l-1.95,2.62c.76,3.36,1.52,6.74,2.28,10.11l.57,2.37a4.44,4.44,0,0,0,1.8,3,5.26,5.26,0,0,0,3.77.2c1.83-.4,3-1.19,3.48-2.35.39-.93.32-2.73-.21-5.37q-1-5.1-2-10.18L69,196.85C71.54,196.22,74.05,195.58,76.56,194.91Zm.8.91-2,2.42L77.2,208q.93,4.82.4,6.47c-.72,2.24-2.67,3.74-5.87,4.44-2.77.61-5,.4-6.69-.58l.15,0,.66.19a11.49,11.49,0,0,0,5.6,0c3.11-.68,5-2.08,5.64-4.15.34-1.11.23-3.17-.35-6.15q-1-5.06-2-10.09L77,195.56Zm-12,2.8c-.47.65-.93,1.3-1.4,1.94q1.27,5.76,2.56,11.51c.07.36.14.72.22,1.08l1,1.85a7.22,7.22,0,0,0,1.8,1.1l.06.14a3.64,3.64,0,0,1-2.31-1.11,7,7,0,0,1-1.24-3q-1.3-5.81-2.59-11.6c.54-.72,1.07-1.45,1.62-2.18Z"/><path d="M78.65,194.35c6.11-1.66,12.24-3.42,18.39-5.24a24.75,24.75,0,0,0-1.28,2.57,23.89,23.89,0,0,0-.84,2.8l-.09.36a5.82,5.82,0,0,0-2.72-2.19,8.48,8.48,0,0,0-3.94.46l-1,.3-1.72.47-.66.16q.64,3.75,1.27,7.5l1.06-.29q-.56-3.31-1.1-6.62l.51-.16c.72-.24,1.49-.48,2.31-.71,2.4-.68,4-.55,4.76.42a4.08,4.08,0,0,0-2-.48,14.27,14.27,0,0,0-3.17.62c-.5.15-1.13.35-1.87.61l1,6.2,2.62-.72c.78-1.17,1.57-2.34,2.37-3.52l1,6.78c-1.1-.63-2.21-1.25-3.32-1.87l-4,1.09q.69,4,1.36,8.07l2.51,1.51q-4.14,1.11-8.28,2.14l2.38-2.77c-.4-2.28-.81-4.57-1.21-6.85a3.78,3.78,0,0,0-2.16,1.53l-.39-.25A4,4,0,0,1,83,204.56c0-.25-.09-.5-.13-.75l-.53.11a4.26,4.26,0,0,0-2.56,1.93l-.16-.22a4,4,0,0,1,3-3.15c-.4-2.24-.8-4.49-1.19-6.73Zm12.88,8.5-3.54,1q.57,3.43,1.13,6.87,1.78,1.35,3.54,2.71-4.87,1.31-9.74,2.53l-.5-.32c3.08-.77,6.15-1.57,9.23-2.39-1-.74-1.94-1.49-2.92-2.22q-.62-3.75-1.24-7.5l3.47-.95Zm2.37-5.76c.34,2.33.69,4.67,1,7l-.48-.11q-.53-3.51-1-7Zm4.63-7.38A15.71,15.71,0,0,0,96,195.63l-.4-.12a13.35,13.35,0,0,1,2.53-6Z"/><path d="M98.66,188.63c6.17-1.83,12.37-3.71,18.64-5.59a27,27,0,0,0-1.41,2.64,28.45,28.45,0,0,0-1,2.88c0,.13-.07.25-.11.38a5.39,5.39,0,0,0-2.62-2.24,8.28,8.28,0,0,0-4,.51l-1,.32-1.73.5-.66.18c.3,2.57.6,5.15.91,7.72l1.07-.32q-.41-3.41-.79-6.81l.51-.18c.74-.25,1.52-.5,2.35-.75q3.66-1.1,4.74.4a3.84,3.84,0,0,0-2-.49,13.88,13.88,0,0,0-3.2.68c-.51.15-1.14.37-1.89.65l.72,6.37,2.65-.78,2.54-3.64q.34,3.48.7,7l-3.23-1.89-4,1.18c.33,2.77.65,5.54,1,8.3l2.43,1.52c-2.79.8-5.57,1.6-8.34,2.38l2.49-2.92c-.3-2.34-.6-4.7-.89-7.05a4,4,0,0,0-2.22,1.63l-.38-.25a4.36,4.36,0,0,1,2.54-1.82c0-.26-.07-.52-.1-.77l-.53.12a4.65,4.65,0,0,0-2.63,2.05l-.15-.23a4.47,4.47,0,0,1,3.14-3.32q-.45-3.45-.88-6.92Zm12.46,8.57-3.58,1.05.81,7.07,3.4,2.74q-4.94,1.42-9.82,2.8l-.48-.32c3.09-.87,6.19-1.76,9.3-2.65l-2.81-2.25c-.29-2.57-.59-5.13-.89-7.7l3.51-1Zm2.64-5.95c.23,2.4.47,4.8.7,7.2l-.48-.12c-.23-2.39-.47-4.79-.7-7.19Zm5-7.6a17,17,0,0,0-2.78,6.09l-.4-.13a14.76,14.76,0,0,1,2.83-6.15C118.52,183.53,118.65,183.59,118.76,183.65Z"/><path d="M118.55,182.67q4.33-1.3,8.71-2.58c-.81,1-1.62,2-2.42,3.07q.61,9,1.24,18.05l.14,0,.63-.13.15,0q-.59-9-1.19-18c.62-.8,1.23-1.61,1.85-2.42l.28.3-1.66,2.19q.59,8.88,1.16,17.76c.52-.1,1-.22,1.5-.35a8.24,8.24,0,0,0,4.14-2.39,8.38,8.38,0,0,0,1.75-4.5c1.26,2.79,2.47,4.61,3.68,5.44-6.12,1.66-12.17,3.39-18.16,5.11l2.23-2.58q-.67-8.78-1.36-17.54Zm21.68,15.79c-.25.59-.5,1.17-.74,1.76-6.1,1.65-12.14,3.36-18.12,5.07-.15-.11-.31-.21-.46-.33,6.06-1.74,12.18-3.48,18.37-5.15.15-.41.31-.81.47-1.22a14.84,14.84,0,0,1-3.31-4.3,1.3,1.3,0,0,0-.08-.17l.58,0c0,.09.09.17.13.25a19.62,19.62,0,0,0,3,3.91Z"/><path d="M159.5,171.42c-.1.13-.2.27-.31.4a23.18,23.18,0,0,0-3.11,5.75l-.27-.53a4,4,0,0,0-2.21-2.15,9.93,9.93,0,0,0-4.25.47c-.94.25-2.06.56-3.36,1q.06,4,.14,7.95l1.17-.31c0-2.35-.07-4.69-.1-7,.94-.33,1.84-.6,2.7-.82a9.29,9.29,0,0,1,3.51-.42,3.15,3.15,0,0,1,2,1.33l-.38-.17a6.53,6.53,0,0,0-2.19-.78,10.72,10.72,0,0,0-2.66.47c-.4.1-1.11.3-2.13.62l-.39.12.09,6.57,3.38-.87c.79-1.22,1.58-2.45,2.38-3.67v7.49l-2.37-2.31q-2.51.63-5,1.29c.06,3.23.12,6.45.17,9.68l1.14-.29q-.06-4.44-.13-8.89l4-1,.48.33-4,1,.12,8.44a23.09,23.09,0,0,0,5.19-1.81,6.19,6.19,0,0,0,2.44-2.57c.33-.61.65-1.22,1-1.82,0-.08.11-.22.22-.44a8.75,8.75,0,0,0,1.14,2.8,10.37,10.37,0,0,0,2.27,2.16c-6.75,1.53-13.41,3.22-20,5,.87-.91,1.75-1.81,2.63-2.71q-.09-3.84-.2-7.68a9.06,9.06,0,0,0-2.72,1.64l-.26-.29a8.44,8.44,0,0,1,3-1.8c0-.27,0-.53,0-.8l-.44.08a6.66,6.66,0,0,0-3.32,2.2,4.87,4.87,0,0,1,3.72-3.78c-.07-2.45-.13-4.9-.2-7.35l-2.88-1.28C146,174.77,152.73,173,159.5,171.42Zm2.71,21.6-1,1.79c-6.55,1.46-13,3.09-19.43,4.79-.11-.13-.2-.26-.3-.39,6.43-1.71,12.92-3.35,19.5-4.82l.64-1.24a9.82,9.82,0,0,1-3.6-4.13l.58.08a10.37,10.37,0,0,0,3.3,3.7Zm-7.4-13.45,0,7.69-.46-.12q0-3.84,0-7.69Zm5.59-7.14-.14.19a26.94,26.94,0,0,0-3.13,5.53l-.32-.29a27.27,27.27,0,0,1,3.33-5.74Z"/><path d="M164.18,170.34c2.87-.64,5.74-1.25,8.64-1.83,3.68-.74,6.3-.74,7.8-.07a4.06,4.06,0,0,1,2.65,4.38,6.44,6.44,0,0,1-1.37,3.5,8.76,8.76,0,0,1-3.26,2.56,28.49,28.49,0,0,1-6.38,1.8l-2.31.46c-.11,2.85-.23,5.69-.34,8.54.72.49,1.43,1,2.15,1.5-2.84.54-5.66,1.13-8.47,1.74l2.59-2.6c.07-2.35.15-4.7.22-7l-.32,0a7.36,7.36,0,0,0-2.57,1.11,2.54,2.54,0,0,0-.16-.28A6,6,0,0,1,165.3,183l.66-.14.15,0,0-.86a5,5,0,0,0-.58.07,6.48,6.48,0,0,0-3.2,1.61l-.17-.22a5.24,5.24,0,0,1,3.69-2.77l.3-.06.27-8.62Zm18.41-1.75a2.89,2.89,0,0,1,1.77,1.57,5.51,5.51,0,0,1,.48,2.94,7.68,7.68,0,0,1-3.6,6.07c-1.66,1.12-4.41,2-8.24,2.75-.64.12-1.17.22-1.61.28-.11,2.43-.21,4.86-.32,7.29.91.91,1.82,1.82,2.72,2.74-3,.57-6.09,1.17-9.1,1.82l-.48-.37c2.84-.61,5.7-1.19,8.56-1.73l-2.22-2.16q.16-4,.34-8c1.08-.16,2.23-.36,3.46-.59a16.47,16.47,0,0,0,7.32-2.89,7.3,7.3,0,0,0,2.74-5.36,5.15,5.15,0,0,0-.28-2.34A6.42,6.42,0,0,0,182.59,168.59Zm-12.22,2.22-.36,8.83.25,0,.48-.08.25-.07q.16-3.93.34-7.87l2.11-.42a9.94,9.94,0,0,1,3.45-.26,2.44,2.44,0,0,1,1.62,1.34,2.66,2.66,0,0,0-1.7-.94,9,9,0,0,0-3,.21l-2,.39c-.1,2.48-.21,5-.32,7.45a14.14,14.14,0,0,0,5.54-2.07,4.59,4.59,0,0,0,1.95-3.55c.11-1.64-.35-2.75-1.37-3.29s-2.71-.61-5.06-.14C172,170.41,171.24,170.59,170.37,170.81Z"/><path d="M209.2,163.56c-1.29.93-2.58,1.88-3.86,2.83q-.72,5.82-1.43,11.65a37.32,37.32,0,0,1-.79,4.63A6.54,6.54,0,0,1,202,185c-1.26,1.63-3.43,2.56-6.51,2.88-3.25.34-5.44-.13-6.6-1.49q-1.4-1.59-1-6.7.49-5.92,1-11.86l-2.49-1.78q4.64-.71,9.28-1.28c-1,.9-1.94,1.81-2.9,2.72q-.56,5.86-1.09,11.71c-.08.92-.15,1.84-.22,2.75-.17,1.78.1,3,.8,3.65s2,.88,3.8.69a5.9,5.9,0,0,0,4.38-2.11c.72-1,1.27-3,1.63-6q.72-5.83,1.45-11.66c-.92-.77-1.84-1.53-2.78-2.29Q205,163.83,209.2,163.56Zm.52,1.18L206.77,167q-.71,5.61-1.42,11.21c-.46,3.67-1.07,6.08-1.81,7.24-1.51,2.35-4,3.64-7.54,4-3.05.31-5.26-.14-6.66-1.41l.14.05.62.28a11.11,11.11,0,0,0,5.74.61c3.42-.34,5.82-1.55,7.21-3.73q1.11-1.76,1.75-6.88l1.44-11.55,3.23-2.4Zm-13.3.94-2.1,2L193,181c-.05.41-.09.82-.14,1.24l.36,2.2a5.89,5.89,0,0,0,1.47,1.47c0,.05,0,.1,0,.16a2.92,2.92,0,0,1-2-1.53,7.43,7.43,0,0,1-.25-3.53q.63-6.72,1.28-13.44c.8-.75,1.6-1.5,2.41-2.24Z"/><path d="M211.55,163.42a203,203,0,0,1,20.64-.11,26.72,26.72,0,0,0-2.18,2.28,27.6,27.6,0,0,0-1.83,2.7l-.22.36a6.24,6.24,0,0,0-2-3.27,8.25,8.25,0,0,0-4.19-.75l-1.13,0H218l-1.29,8.49,1.18,0q.58-3.75,1.16-7.49l.58,0c.82-.05,1.7-.07,2.62-.08,2.69,0,4.26.69,4.71,2a4.22,4.22,0,0,0-1.9-1.19,12.74,12.74,0,0,0-3.46-.32c-.57,0-1.28,0-2.13.11-.36,2.33-.73,4.67-1.09,7h2.93q1.8-1.53,3.63-3-.66,3.83-1.3,7.63c-.91-1-1.82-2-2.74-3.06-1.47,0-2.95,0-4.43,0q-.69,4.58-1.39,9.15c.69.77,1.37,1.55,2.05,2.33q-4.62,0-9.22.24c1.12-.83,2.26-1.66,3.39-2.48q.57-3.89,1.12-7.79a4.36,4.36,0,0,0-2.75,1.17c-.1-.13-.21-.25-.31-.37a4.59,4.59,0,0,1,3.13-1.28l.12-.86H212a5,5,0,0,0-3.29,1.52c0-.09-.06-.18-.1-.28a5,5,0,0,1,4.19-2.75q.54-3.81,1.09-7.64C213.12,164.88,212.34,164.14,211.55,163.42Zm10.28,12.75h-4q-.62,3.89-1.21,7.77c.9,1.31,1.79,2.64,2.67,4q-5.42-.06-10.83.18l-.4-.47q5.13-.24,10.26-.21c-.73-1.09-1.47-2.17-2.21-3.25q.66-4.23,1.31-8.47c1.3,0,2.59,0,3.88,0Zm4.41-5.43-1.38,7.87-.45-.29c.46-2.62.91-5.24,1.37-7.86Zm7.25-6.24a17.4,17.4,0,0,0-4.57,5.41c-.12-.09-.25-.17-.37-.27a14.81,14.81,0,0,1,4.64-5.47Z"/><path d="M234,163.41a167.47,167.47,0,0,1,20.48,2.4,24,24,0,0,0-2.29,2.06,25.27,25.27,0,0,0-2,2.55l-.24.34a7.07,7.07,0,0,0-1.8-3.62,8.13,8.13,0,0,0-4.1-1.29l-1.13-.11-1.91-.22-.72-.09q-.89,4.27-1.76,8.56l1.17.12c.53-2.52,1-5,1.58-7.56l.57,0q1.23.08,2.61.24c2.66.32,4.18,1.23,4.54,2.63a4.54,4.54,0,0,0-1.81-1.47,12.93,12.93,0,0,0-3.4-.76c-.57-.06-1.27-.11-2.12-.14-.49,2.35-1,4.71-1.49,7.06,1,.11,1.94.22,2.91.35,1.25-.9,2.5-1.79,3.77-2.67-.58,2.56-1.16,5.11-1.73,7.67-.84-1.17-1.67-2.33-2.53-3.48-1.46-.19-2.92-.36-4.39-.51-.63,3.07-1.27,6.14-1.9,9.22.64.87,1.27,1.75,1.89,2.65-3-.38-6.1-.66-9.16-.86,1.16-.73,2.34-1.44,3.51-2.15.52-2.62,1-5.23,1.55-7.85a4,4,0,0,0-2.8.87l-.29-.4a4.24,4.24,0,0,1,3.18-1c.06-.29.12-.58.17-.86a5.65,5.65,0,0,0-.57-.08,4.54,4.54,0,0,0-3.36,1.18c0-.1-.06-.2-.08-.3a4.57,4.57,0,0,1,4.31-2.34c.51-2.57,1-5.14,1.52-7.7C235.48,165.09,234.75,164.24,234,163.41Zm9.49,14.31c-1.3-.18-2.61-.34-3.91-.49l-1.65,7.83c.82,1.46,1.62,2.93,2.42,4.41-3.57-.5-7.15-.87-10.75-1.13l-.37-.53q5.11.34,10.19,1c-.66-1.22-1.33-2.42-2-3.61.59-2.85,1.19-5.7,1.78-8.54,1.29.14,2.57.29,3.85.46Zm4.67-5q-.91,4-1.81,7.92l-.43-.36,1.8-7.91Zm7.53-5.48a15.68,15.68,0,0,0-4.83,5l-.35-.32a13.49,13.49,0,0,1,4.9-5Z"/><path class="cls-5" d="M1.59,168.15c-.26,15.7,0,32.42,1,50,.73,12.62,1.78,24.71,3.07,36.25,7.87-1.26,16.28-2.35,25.2-3.15,10.25-.92,19.92-1.35,28.93-1.45-.62-11.76-1-24-1-36.76-.05-17.57.52-34.28,1.54-50a90,90,0,0,1-58.73,5.1Z"/><path d="M5.82,182.32H25.34l-5.65,5.52v17.94a20.34,20.34,0,0,0,2.24.25V188.26l4.53-4.49.83.75L23,188.76v17.31l1.37.13q3.21.28,6.19.29a56.45,56.45,0,0,0,7.43-.42V187l-5.06-4.65H52.12l-5.73,5.52v43.27l5,4.48H32.32L38,230.74V213.13a30.53,30.53,0,0,1-7.18.83q-3.48,0-7.22-.37l-.59,0v17.56L29.87,239H8.4l-1.08-1.12H27.58l-5.65-6.19v-19.1l1.21.08c3.65.28,6.3.42,7.93.42A20.09,20.09,0,0,0,38,212v-1.5a62,62,0,0,1-9.09.59c-1.85,0-3.21,0-4.07-.13l-4.19-.37q-.25,0-1-.09v20.6L25,235.59H5.82l5.57-4.85V212.59a6.63,6.63,0,0,0-5.57,2.74L5,214.92a8.83,8.83,0,0,1,6.44-3.37V210A8.74,8.74,0,0,0,4,213.55l-.62-.42q2.45-6,8-7.06V187.39Zm48.05,2.33-4.24,4.11v42.35L56.52,239H35l-1-1.12H54.16l-5.57-6.27V188.34l4.61-4.57Z"/></g></svg>