<svg xmlns="http://www.w3.org/2000/svg" width="321.14" height="382.19" viewBox="0 0 321.14 382.19"><defs><style>.cls-1{fill:#bf622c;stroke-width:15px;}.cls-1,.cls-2{stroke:#000;stroke-miterlimit:10;}.cls-2{fill:none;stroke-width:11px;}</style></defs><g id="Layer_2" data-name="Layer 2"><path class="cls-1" d="M7.82,91.61A102.39,102.39,0,0,1,50.71,74.93L50.05,33.4a237.23,237.23,0,0,1,209.34-3.06v48c6.17-1.19,20.6-3,35.69,4.21a54.05,54.05,0,0,1,13.33,9.06c-5.47,44.68-9,80.65-11.23,104.85-4.11,45-4.37,58.17-14.3,76.6-11.5,21.35-27.68,33.7-59.57,57.53a542,542,0,0,1-67,42.79c-27.75-19.65-50.56-36.86-67.43-49.94-36-27.9-43.83-36-50.73-47C26.74,258.36,23.89,242.08,19.39,206,15.56,175.28,11.33,136.65,7.82,91.61Z"/><path class="cls-2" d="M34.65,109.26A84.2,84.2,0,0,1,69.88,95.55l-.54-34.11a194.84,194.84,0,0,1,172-2.52V98.35c5.07-1,16.92-2.48,29.32,3.46a44.71,44.71,0,0,1,10.95,7.45c-4.5,36.69-7.41,66.24-9.23,86.13-3.37,36.94-3.59,47.78-11.74,62.92-9.45,17.54-22.74,27.68-48.94,47.26a444.11,444.11,0,0,1-55.07,35.15c-22.8-16.14-41.53-30.28-55.4-41-29.58-22.92-36-29.58-41.66-38.59-9.35-14.87-11.69-28.25-15.38-57.89C41,178,37.54,146.26,34.65,109.26Z"/><path d="M122.2,109.88h55.11l-15.58,15.81v121L176.38,259H122.2l16.16-13.37V124.41Zm60.34,6.62-11.86,11.75V246.72l19.53,21.86H129.76l-2.91-3.14h56.5l-15.92-17.56V127.2l13.13-13Z"/></g></svg>