<svg xmlns="http://www.w3.org/2000/svg" width="349.64" height="275.63" viewBox="0 0 349.64 275.63"><defs><style>.cls-1{fill:#f7f7f7;stroke:#1b578c;stroke-width:3px;}.cls-1,.cls-4{stroke-miterlimit:10;}.cls-2{fill:#1b578c;}.cls-3{fill:#cec52c;}.cls-4{fill:none;stroke:#fff;}</style></defs><g id="Layer_8" data-name="Layer 8"><path class="cls-1" d="M153.46,273.42c40,5.21,76.32-18.65,83.75-53.91a62.6,62.6,0,0,0,12,2.83c30.91,4,58.92-15.45,62.58-43.49a47.23,47.23,0,0,0-3.22-24.07c19.86,0,36.88-13.26,39.28-31.7,2.63-20.22-13.3-39-35.58-41.87a43.84,43.84,0,0,0-16.75,1c-.33-26.83-18.73-49.75-44.19-53.07-16.39-2.14-32,4.36-43,16.13-7.82-22.64-27.49-40-52.4-43.26C120.55-2.57,88.06,23,83.35,59.22a67.2,67.2,0,0,0,.77,22.12c-40.18-.67-75.91,32.43-81.79,77.57-6.28,48.16,23.81,91.79,67.21,97.44a72.61,72.61,0,0,0,37.58-5.14A80.76,80.76,0,0,0,153.46,273.42Z"/><path class="cls-2" d="M103.61,154l.07.1-.13.14a28.4,28.4,0,0,0-3.8,4.87l-.82,1.34-4.79,7.67v5.23L96,175H89.73l1.86-1.71v-5.23l-3.09-4.76-.67-1.06a16.11,16.11,0,0,0-1.51-2.09,13.15,13.15,0,0,0-1.73-1.56l-.14-.12H91l-1.6,1.66,4.29,6.47.41-.65-3.83-5.82,1.36-1.28.27.2-1.17,1.08,3.56,5.51,2.89-4.55a6.6,6.6,0,0,0,1.25-3,2.92,2.92,0,0,0-1.1-1.89,25.06,25.06,0,0,0,6.16-2.22Zm.58.77v.53l-.13.13a17.3,17.3,0,0,0-1.86,2.06c-.52.69-1.3,1.84-2.32,3.47l-4.66,7.34v5l2.29,2.77H89.45l-.16-.35h7.54l-2-2.42v-5.14l4.76-7.5.74-1.18A20.89,20.89,0,0,1,104.19,154.74Z"/><path class="cls-2" d="M109.75,158.34a6.06,6.06,0,0,1,5,2.37,9.92,9.92,0,0,1,1.87,6.33,9.08,9.08,0,0,1-1.85,6,6.1,6.1,0,0,1-5,2.23,6.69,6.69,0,0,1-4.38-1.57q-2.84-2.33-2.83-6.87a9.28,9.28,0,0,1,1.94-6.18A6.43,6.43,0,0,1,109.75,158.34Zm0,1.1q-4.35,0-4.35,7.66,0,7.07,4.29,7.07a3.31,3.31,0,0,0,3-1.88,11.56,11.56,0,0,0,1-5.48q0-4.08-1-5.69A3.37,3.37,0,0,0,109.75,159.44Zm4.11-.45a6.38,6.38,0,0,1,2.91,3,11.09,11.09,0,0,1,1.07,5,10.18,10.18,0,0,1-2.11,6.7,6.8,6.8,0,0,1-5.53,2.54,6.52,6.52,0,0,1-4.09-1.48v-.06a6.58,6.58,0,0,0,4,1.17,6.66,6.66,0,0,0,5.31-2.43,9.3,9.3,0,0,0,2.07-6.23,12,12,0,0,0-.94-4.93,6.8,6.8,0,0,0-2.69-3.16Zm-1.35,2.39-.22-.13a4.74,4.74,0,0,0-2.27-.69c-2.26,0-3.39,2.23-3.39,6.66q0,4.88,2.1,6.46l-.11.13a5,5,0,0,1-1.84-2.4,12.17,12.17,0,0,1-.55-4q0-7.15,3.77-7.15A2.83,2.83,0,0,1,112.51,161.38Z"/><path class="cls-2" d="M133.78,158.5l-2.31,1.85v8.32a25.22,25.22,0,0,1-.15,3.3,3.87,3.87,0,0,1-.58,1.64c-.74,1.1-2.18,1.65-4.31,1.65s-3.82-.55-4.71-1.65c-.71-.86-1.07-2.53-1.07-5v-8.55l-1.75-1.58H125l-1.75,1.72v8.42l0,2a3.79,3.79,0,0,0,.8,2.72,3.68,3.68,0,0,0,2.69.81,3.17,3.17,0,0,0,2.88-1.23c.42-.66.63-2.08.63-4.25l.05-8.33-2-1.85Zm.43.88-1.75,1.45v8c0,2.63-.2,4.33-.62,5.13-.84,1.62-2.48,2.42-4.93,2.42a6.51,6.51,0,0,1-4.77-1.58l.11,0,.45.26a7.94,7.94,0,0,0,4.07.93q3.55,0,4.71-2.25a12.24,12.24,0,0,0,.62-4.86v-8.25l1.92-1.57Zm-8.69-.18-1.26,1.27v9.58l0,.88.4,1.64a5.49,5.49,0,0,0,1.12,1.19l0,.11a2.65,2.65,0,0,1-1.49-1.27,6.05,6.05,0,0,1-.42-2.59v-9.66l1.46-1.42Z"/><path class="cls-2" d="M155.15,158.9l-.14.25a34.49,34.49,0,0,0-2,4l-.12.3-.17-.09a5.53,5.53,0,0,0-1.38-3.11,3.46,3.46,0,0,0-2.61-1.14,3.3,3.3,0,0,0-2.73,1.43q-1.38,1.77-1.38,6a10.91,10.91,0,0,0,1.27,5.73,3.93,3.93,0,0,0,3.52,2.07,3.68,3.68,0,0,0,2.88-1.2,5.77,5.77,0,0,0,1.28-3.45c0-.36.18-.54.44-.54s.5.28.5.84a6.8,6.8,0,0,1-.56,2.59q-1.2,2.83-4.95,2.83a6.57,6.57,0,0,1-5.32-2.35,9.6,9.6,0,0,1-2-6.36,9.41,9.41,0,0,1,2.05-6.19,6.31,6.31,0,0,1,5.09-2.5,9.13,9.13,0,0,1,3.28.71,4.6,4.6,0,0,0,1.6.37,2.09,2.09,0,0,0,1.22-.37Zm.46,11.08a7.57,7.57,0,0,1-1.78,4.86,5.76,5.76,0,0,1-4.41,1.67,6.78,6.78,0,0,1-4-1.32v-.11a7.09,7.09,0,0,0,4,1.08,5.57,5.57,0,0,0,4.16-1.63,5.16,5.16,0,0,0,1.16-1.79,9.59,9.59,0,0,0,.5-2.63l0-.3Zm-4.2-8.85a3.6,3.6,0,0,0-2.21-.94q-3.34,0-3.34,6.36a13.14,13.14,0,0,0,.77,4.83,4.16,4.16,0,0,0,2.18,2.49V174a3.6,3.6,0,0,1-2.43-2.34,12.67,12.67,0,0,1-.91-5.13q0-6.66,3.66-6.66a3.09,3.09,0,0,1,2.28,1.09Zm4.68-1.61-.14.25a38.22,38.22,0,0,0-2.25,4.36l-.34-.16.14-.33c.43-.9.81-1.65,1.13-2.24l1-1.83.13-.23Z"/><path class="cls-2" d="M168.89,158.5,167.55,160l2.12,5.62.51-.28-1.9-5.08,1.36-1.57.34.14-1.31,1.51,1.81,4.8.18-.14.42-.36a3,3,0,0,0,.49-.44,9.19,9.19,0,0,0,1,2.63c-.25,0-.43,0-.54,0a3.24,3.24,0,0,0-1.79.38l2.33,6.33,1.94,1.49H168l1.78-1.49-1.43-3.76a14.05,14.05,0,0,0-2.18,2.71l-.3-.07a17,17,0,0,1,2.27-2.83l.11-.12-.25-.57a11.57,11.57,0,0,0-2.54,3l-.23-.37c-.45-.71-1-1.53-1.71-2.44l-.13-.15a9.3,9.3,0,0,0-1,3.58,3.13,3.13,0,0,0,.27,1.37,12.66,12.66,0,0,0,1.34,1.88l.28.36h-7l-.25-.35h6.55l-.22-.27a9,9,0,0,1-1.11-1.6,3.16,3.16,0,0,1-.26-1.35,11.6,11.6,0,0,1,1.06-3.92l-.56-.59c-.11.28-.26.68-.43,1.21l-.42,1.32a5.84,5.84,0,0,0-.35,1.75,2.67,2.67,0,0,0,.24,1.2,6.83,6.83,0,0,0,1,1.3l.23.24h-6.44a7.63,7.63,0,0,0,2.91-2.56,20.5,20.5,0,0,0,2.14-5l0-.18a3.47,3.47,0,0,0-2-.71,9.46,9.46,0,0,0,1.09-2.21l.22.21.58.54a6.52,6.52,0,0,0,.71.58l.23-.57-.15-.12c-.43-.38-.79-.69-1.09-.92l-.11-.09.2-.28a9.88,9.88,0,0,1,1.32,1l1.75-4.82L163,158.5Zm-3.76,2.64-2,5.41a17.23,17.23,0,0,1,1.69,2l.59.82.13.17.13-.14.18-.22.14-.17a13.65,13.65,0,0,0-2.1-2.51l1.65-4.35Zm.58,1.5-1.42,3.73.13.16.53.59a11.5,11.5,0,0,1,1.08,1.44l.13.2a10.58,10.58,0,0,1,1.32-1.38Zm7,2.2a14,14,0,0,0,1.41,3.18l-.32,0-1-.1c-.47,0-.82-.06-1-.06h-.26l2.15,5.71,2.87,2.54H169l-.25-.35h6.84l-2.32-2.05L171,167.62a4.31,4.31,0,0,1,1-.11,12.81,12.81,0,0,1,1.55.11l-.15-.28a11.24,11.24,0,0,1-1.11-2.74Z"/><path class="cls-2" d="M191.63,158.5a5.22,5.22,0,0,0-1.89,1.39,5.44,5.44,0,0,0-.65,3V175h-2.17l-6.08-11.8v7l0,.58.16,1.85a2.85,2.85,0,0,0,1.17,1.91l.1.09c-1.18-.4-1.78-1.66-1.78-3.8l0-1.21V162.6l-.7-1.35v7.42a14.33,14.33,0,0,0,.47,4.62,3.12,3.12,0,0,0,2.17,1.6l1.12,1.2h-7l-.2-.35h6.45l-.67-.71h-6a3.62,3.62,0,0,0,2.08-1.52,7.28,7.28,0,0,0,.52-3.27V159.93L177,158.5h6.51l-1.83,1.23L188,171.89v-1.55l-5.35-10.41,1.81-1.22.24.24-1.6,1.09,4.9,9.61V163a7.86,7.86,0,0,0-.37-3,3.76,3.76,0,0,0-1.81-1.45Zm.45,1-.23.38a2,2,0,0,0-1.35.86,4.67,4.67,0,0,0-.35,2.11v13.28h-2.77l-.17-.35h2.59V162.93a4.94,4.94,0,0,1,.47-2.53A2.6,2.6,0,0,1,192.08,159.46Z"/><path class="cls-2" d="M196.22,158.4a4.58,4.58,0,0,1,.38,1.76c0,2.14-1.27,3.63-3.81,4.45l-.1-.19.13-.11a3.37,3.37,0,0,0,1.32-2.66,2.85,2.85,0,0,0-.68-1.91l.24-.09A11.61,11.61,0,0,0,196.22,158.4Zm1.27.39a5.19,5.19,0,0,1,.22,1.43c0,2.43-1.42,4.18-4.26,5.27l-.17-.35.22-.08a6.29,6.29,0,0,0,3-2.13,4.66,4.66,0,0,0,.85-2.62,7.61,7.61,0,0,0-.23-1.7Z"/><path class="cls-2" d="M213,158.5q-.12.23-.15.3l-.88,1.55a11.5,11.5,0,0,0-.84,2.06l0,.06-.13-.09,0-.17a3.78,3.78,0,0,0-1.06-2,3.26,3.26,0,0,0-2.11-.57c-.39,0-.77,0-1.16,0h-.15v14l1.52,1.4H202l1.8-1.51V160.71l-.91,0a2.12,2.12,0,0,0-2.55,2.36H200a3.31,3.31,0,0,1,.78-2.1,3.09,3.09,0,0,1,2.11-.59h.91v-.63a10.9,10.9,0,0,0-1.25-.08,3.48,3.48,0,0,0-2.39.68,3.21,3.21,0,0,0-.81,2.29h-.16a24,24,0,0,0-1.71-4l-.08-.13Zm-2.63,2.83a4.15,4.15,0,0,0-2.32-.65,4.35,4.35,0,0,0-.61,0l.05,12.95,2.05,2.42H202.9l-.29-.35h6.17l-1.73-2V160.35l.7,0a5.6,5.6,0,0,1,1.77.2A1.49,1.49,0,0,1,210.32,161.33Zm3.44-2a15,15,0,0,0-1.87,3.76l0,.13-.28-.25,0-.12a12.69,12.69,0,0,1,1.84-3.71l.07-.07Z"/><path class="cls-2" d="M99.56,190.16l-.2.25a12.58,12.58,0,0,0-2.09,3.69c-.09-.19-.15-.34-.2-.43a4.16,4.16,0,0,0-1.52-2,6.56,6.56,0,0,0-2.91-.45c-.64,0-1.41,0-2.32.06v5.93h.83V192c.65-.06,1.27-.09,1.87-.09a6.31,6.31,0,0,1,2.41.34,3.29,3.29,0,0,1,1.37,1.36,2.64,2.64,0,0,1-.25-.2,6.54,6.54,0,0,0-1.51-1,7.15,7.15,0,0,0-1.83-.15l-1.47.05h-.27v4.9h2.37l1.66-2.28v5.55l-1.66-2.15H90.32v7.23h.83v-6.62h2.79l.34.33H91.47v6.29a13,13,0,0,0,3.74-.38A3.09,3.09,0,0,0,97,203.71l.68-1.17s.08-.14.15-.28a8.77,8.77,0,0,0,.83,2.27,10.42,10.42,0,0,0,1.65,2H85.82l2-1.49v-5.75a4.77,4.77,0,0,0-2,.67l-.18-.27a4.5,4.5,0,0,1,2.13-.73v-.61l-.31,0a3.53,3.53,0,0,0-2.39,1,2.58,2.58,0,0,1,2.7-2.06v-5.5l-2-1.55Zm2.17,16.43-.67,1.16H87l-.21-.35h14.11l.44-.81a9.94,9.94,0,0,1-2.62-3.66l.41.15a10.61,10.61,0,0,0,2.4,3.3Zm-5.34-11.24v5.7l-.32-.17v-5.69Zm3.79-4.29-.09.12a15.16,15.16,0,0,0-2.1,3.54l-.22-.27a15.52,15.52,0,0,1,2.23-3.66Z"/><path class="cls-2" d="M117.89,190.16,115.06,192l-4.12,5.24,4.71,7.74,2.24,1.69h-6.64l1.63-1.58-2.94-4.8L106.31,205l2.11,2.75h-7l-.2-.35h6.56L105.9,205l3.86-5-.36-.57-4.21,5.34,1.57,1.93h-5.91l3-1.93,5-6.31-4-6.56-2.45-1.73h6.8l-1.68,1.47,2.87,4.69.46-.59-2.41-3.84,1.43-1.37.24.22-1.24,1.15,2.19,3.58,2.8-3.58-1.62-1.73Zm.47,1-2.52,1.48-3.64,4.73,4.44,7.34,3.15,3.06h-8l-.24-.35H119l-2.61-2.54-4.56-7.51,3.82-4.95,2.55-1.52Z"/><path class="cls-2" d="M121.13,190.16h5.78c2.46,0,4.2.34,5.24,1a4.15,4.15,0,0,1,1.23,5.94,4.23,4.23,0,0,1-2.13,1.47,15.12,15.12,0,0,1-4.34.45h-1.58v6.23l1.57,1.42h-6l1.79-1.51V200l-.22,0a4.24,4.24,0,0,0-1.78.4l-.11-.23a3.26,3.26,0,0,1,1.54-.49h.57V199l-.4,0a3.36,3.36,0,0,0-2.2.67l-.13-.19a2.65,2.65,0,0,1,2.52-1.45h.21v-6.31Zm12.35,1.38a2.85,2.85,0,0,1,1.26,1.36,5,5,0,0,1,.48,2.21,4.27,4.27,0,0,1-2.16,4c-1.1.62-3,.93-5.6.93-.43,0-.8,0-1.1,0v5.32l2,2.4h-6.46l-.34-.35h6.06L126,205.49v-5.81c.74,0,1.54.07,2.38.07a8.41,8.41,0,0,0,4.93-1.17,4.15,4.15,0,0,0,1.61-3.6,4.4,4.4,0,0,0-.31-1.74A6.45,6.45,0,0,0,133.48,191.54Zm-8.15,0v6.45h.16l.34,0,.17,0V192.2h1.41a6.39,6.39,0,0,1,2.33.29,2.45,2.45,0,0,1,1.15,1.2,2.54,2.54,0,0,0-1.19-.92,6.26,6.26,0,0,0-2-.26h-1.32v5.43a7.34,7.34,0,0,0,3.74-.74,2.58,2.58,0,0,0,1.19-2.35,3.06,3.06,0,0,0-1.06-2.6,5.7,5.7,0,0,0-3.42-.81C126.4,191.44,125.91,191.46,125.33,191.49Z"/><path class="cls-2" d="M150,190.16l-.21.25a12.79,12.79,0,0,0-2.08,3.69c-.09-.19-.15-.34-.2-.43a4.22,4.22,0,0,0-1.52-2,6.56,6.56,0,0,0-2.91-.45c-.64,0-1.42,0-2.32.06v5.93h.83V192c.65-.06,1.27-.09,1.87-.09a6.22,6.22,0,0,1,2.4.34,3.26,3.26,0,0,1,1.38,1.36,2.64,2.64,0,0,1-.25-.2,6.54,6.54,0,0,0-1.51-1,7.15,7.15,0,0,0-1.83-.15l-1.47.05h-.27v4.9h2.37l1.66-2.28v5.55l-1.66-2.15h-3.52v7.23h.83v-6.62h2.79l.34.33h-2.81v6.29a13,13,0,0,0,3.74-.38,3.1,3.1,0,0,0,1.73-1.47l.69-1.17a3,3,0,0,1,.15-.28,8.77,8.77,0,0,0,.83,2.27,10.42,10.42,0,0,0,1.65,2H136.22l2-1.49v-5.75a4.86,4.86,0,0,0-2,.67l-.18-.27a4.58,4.58,0,0,1,2.14-.73v-.61l-.31,0a3.53,3.53,0,0,0-2.39,1,2.57,2.57,0,0,1,2.7-2.06v-5.5l-2-1.55Zm2.16,16.43-.67,1.16H137.4l-.21-.35H151.3l.43-.81a10,10,0,0,1-2.61-3.66l.41.15a10.45,10.45,0,0,0,2.4,3.3Zm-5.33-11.24v5.7l-.32-.17v-5.69Zm3.79-4.29-.09.12a15.16,15.16,0,0,0-2.1,3.54l-.22-.27a15.2,15.2,0,0,1,2.23-3.66Z"/><path class="cls-2" d="M152.4,190.16h6.16l-1.81,1.77V205.7h.1l.46,0h.12V192.06l1.39-1.41.18.29-1.25,1.27v13.53c.39,0,.76,0,1.11,0a4.61,4.61,0,0,0,3.1-.91,4.92,4.92,0,0,0,1.41-3,13.16,13.16,0,0,0,2.48,4.8H152.4l1.78-1.45V191.8Zm14.72,16.43-.58,1.16H153.09l-.32-.35H166.4l.37-.81a14.59,14.59,0,0,1-2.27-3.88l-.05-.14.41.15.09.22a19.11,19.11,0,0,0,2.06,3.52Z"/><path class="cls-2" d="M166.85,190.16H173l-1.81,1.77V205.7h.1l.46,0h.12V192.06l1.39-1.41.18.29-1.25,1.27v13.53c.39,0,.76,0,1.11,0a4.59,4.59,0,0,0,3.1-.91,4.92,4.92,0,0,0,1.41-3,13.14,13.14,0,0,0,2.49,4.8H166.85l1.77-1.45V191.8Zm14.71,16.43-.58,1.16H167.53l-.32-.35h13.63l.37-.81a14.59,14.59,0,0,1-2.27-3.88l-.05-.14.41.15.09.22a19.69,19.69,0,0,0,2.06,3.52Z"/><path class="cls-2" d="M202.25,190.16l-.16.3-.87,1.54a10.93,10.93,0,0,0-.84,2.07l0,.06-.13-.09,0-.17a3.72,3.72,0,0,0-1.06-2,3.25,3.25,0,0,0-2.1-.57c-.39,0-.78,0-1.16,0h-.16v14l1.52,1.4h-5.89l1.81-1.51V192.37l-.92,0a2.13,2.13,0,0,0-2.55,2.36h-.33a3.2,3.2,0,0,1,.78-2.1,3,3,0,0,1,2.1-.59h.92v-.63a11.19,11.19,0,0,0-1.25-.08,3.49,3.49,0,0,0-2.4.68,3.21,3.21,0,0,0-.81,2.29h-.15a23.34,23.34,0,0,0-1.72-4l-.07-.13ZM199.62,193a4.17,4.17,0,0,0-2.32-.64,4.49,4.49,0,0,0-.62,0l0,13,2.05,2.42H192.2l-.3-.35h6.17l-1.72-2V192H197a5.55,5.55,0,0,1,1.77.2A1.52,1.52,0,0,1,199.62,193Zm3.44-2a14.78,14.78,0,0,0-1.87,3.77l-.05.12-.29-.24,0-.12a12.65,12.65,0,0,1,1.85-3.71l.06-.07Z"/><path class="cls-2" d="M203.46,190.16h6l-1.75,1.72v5.56a5.92,5.92,0,0,0,.7.08V192l1.4-1.39.26.24-1.33,1.31v5.37l.43,0c.66.06,1.3.09,1.91.09a17,17,0,0,0,2.31-.13v-5.92l-1.57-1.45h5.95L216,191.88V205.3l1.56,1.39h-5.92l1.76-1.51v-5.46a9.65,9.65,0,0,1-2.23.26,21.73,21.73,0,0,1-2.24-.12h-.18v5.45l2.13,2.45h-6.66l-.34-.35h6.29l-1.75-1.92v-5.93l.37,0c1.13.09,1.95.13,2.46.13a6.1,6.1,0,0,0,2.15-.34v-.46a19.46,19.46,0,0,1-2.82.18c-.58,0-1,0-1.26,0l-1.3-.11-.3,0v6.39l1.65,1.39h-5.95l1.72-1.51v-5.63a2.06,2.06,0,0,0-1.72.85l-.27-.12a2.7,2.7,0,0,1,2-1.05v-.48a2.73,2.73,0,0,0-2.28,1.1l-.19-.13a3.29,3.29,0,0,1,2.47-2.19v-5.8Zm14.9.72-1.31,1.28V205.3l2.14,2.45H212.5l-.32-.35h6.27l-1.72-2V192l1.43-1.42Z"/><path class="cls-2" d="M219.72,190.16h6.1l-1.73,1.75v13.42l1.63,1.36h-6l1.79-1.48V191.77Zm6.68.74-1.31,1.3v13.13l2.16,2.42h-6.7l-.32-.35h6.26l-1.76-2V192.08l1.45-1.44Z"/><path class="cls-2" d="M239.88,190.3a8.31,8.31,0,0,0-1.07,1.89q-.8,1.92-1.05,2.37l-.06.07a2.11,2.11,0,0,1-.08-.22,12.17,12.17,0,0,0-.59-1.61,3.19,3.19,0,0,0-.7-.86,3.92,3.92,0,0,0-2.66-1,3.47,3.47,0,0,0-2.3.76,2.41,2.41,0,0,0-.91,1.93c0,1.44,1.09,2.43,3.26,2.95l2.18.53q4.65,1.11,4.65,4.91a4.55,4.55,0,0,1-1.6,3.54A5.64,5.64,0,0,1,235,207a13.81,13.81,0,0,1-3.29-.45l-1.5-.37a6.58,6.58,0,0,0-1.51-.22,3.08,3.08,0,0,0-1.62.5l-.11-.18a17.16,17.16,0,0,0,2.25-4.59l.23.07a4.71,4.71,0,0,0,1.62,3.14,5.35,5.35,0,0,0,3.54,1.12,4.31,4.31,0,0,0,2.75-.8,2.61,2.61,0,0,0,1-2.15,3,3,0,0,0-1.41-2.57,12,12,0,0,0-4.18-1.34,6.72,6.72,0,0,1-3.53-1.59,4.65,4.65,0,0,1,.37-6.38,5.59,5.59,0,0,1,3.81-1.27,13.79,13.79,0,0,1,3.51.54,6,6,0,0,0,1.4.26,2.74,2.74,0,0,0,1.37-.44Zm0,8.22a4.35,4.35,0,0,1,1.75,3.64,5.37,5.37,0,0,1-1.91,4.16,6.7,6.7,0,0,1-4.64,1.71,10.26,10.26,0,0,1-2.51-.28l-2.06-.5a5.93,5.93,0,0,0-1.55-.19,3,3,0,0,0-1.35.3l-.15-.37a3.14,3.14,0,0,1,1.36-.31,7.54,7.54,0,0,1,1.77.23l2,.48a10.64,10.64,0,0,0,2.5.28,6.33,6.33,0,0,0,4.39-1.64,5.21,5.21,0,0,0,1.81-4,4.92,4.92,0,0,0-1.39-3.45Zm-10.79-.46.44.24c.28.51,1.11.93,2.49,1.27l2.07.51a14.34,14.34,0,0,1,2.82.91,2.12,2.12,0,0,1,1,1.15l-.09.05a3.63,3.63,0,0,0-1.25-1,15.86,15.86,0,0,0-2.6-.76,19.55,19.55,0,0,1-3.73-1.12A1.9,1.9,0,0,1,229.09,198.06Zm1.61,4.17a4.42,4.42,0,0,0,2.55,3.29v.1a3.93,3.93,0,0,1-2.89-3.32Zm6.21-8.82a4.14,4.14,0,0,0-3-1.51,2.36,2.36,0,0,0-1.62.57,1.83,1.83,0,0,0-.64,1.44,2.67,2.67,0,0,0,1.3,2l.1.06-.07.11a2.41,2.41,0,0,1-1.7-2.21,2.07,2.07,0,0,1,.73-1.63,2.74,2.74,0,0,1,1.88-.63,3.82,3.82,0,0,1,1.94.47,2.77,2.77,0,0,1,1.21,1.32Zm3.76-2.56-.11.19a19,19,0,0,0-.9,1.7c-.6,1.26-.94,2-1,2.11l-.07.09-.3-.13,0-.11q.38-.85,1.08-2.22l.88-1.7.06-.1Z"/><path class="cls-2" d="M97.69,222a9.07,9.07,0,0,0-1.07,1.88,24.9,24.9,0,0,1-1,2.37l-.06.08c0-.09-.06-.17-.08-.22a12.17,12.17,0,0,0-.59-1.61,3,3,0,0,0-.7-.86,3.87,3.87,0,0,0-2.67-1,3.44,3.44,0,0,0-2.29.76,2.41,2.41,0,0,0-.91,1.93c0,1.44,1.08,2.42,3.26,2.95l2.17.53c3.1.74,4.65,2.38,4.65,4.9a4.58,4.58,0,0,1-1.59,3.55,5.64,5.64,0,0,1-3.93,1.44,13.81,13.81,0,0,1-3.29-.45L88,237.8a6.51,6.51,0,0,0-1.5-.22,3.11,3.11,0,0,0-1.63.5l-.1-.18a17.25,17.25,0,0,0,2.24-4.59l.23.07a4.72,4.72,0,0,0,1.63,3.14,5.35,5.35,0,0,0,3.54,1.12,4.32,4.32,0,0,0,2.74-.8,2.59,2.59,0,0,0,1-2.15,3,3,0,0,0-1.42-2.57,11.9,11.9,0,0,0-4.17-1.34,6.72,6.72,0,0,1-3.53-1.59A4.18,4.18,0,0,1,86,226.11a4.13,4.13,0,0,1,1.46-3.3,5.56,5.56,0,0,1,3.8-1.27,13.79,13.79,0,0,1,3.52.54,6.06,6.06,0,0,0,1.39.26,2.8,2.8,0,0,0,1.38-.44Zm0,8.22a4.32,4.32,0,0,1,1.75,3.64,5.37,5.37,0,0,1-1.9,4.16,6.7,6.7,0,0,1-4.64,1.71,10.71,10.71,0,0,1-2.51-.28l-2.06-.51a6.4,6.4,0,0,0-1.55-.18,3,3,0,0,0-1.35.3l-.16-.37a3.21,3.21,0,0,1,1.37-.31,7.47,7.47,0,0,1,1.76.23l2,.48a11.2,11.2,0,0,0,2.5.28,6.28,6.28,0,0,0,4.38-1.64,5.17,5.17,0,0,0,1.81-4,4.88,4.88,0,0,0-1.39-3.45Zm-10.78-.46.44.24c.28.51,1.11.93,2.49,1.27l2.07.51a13.93,13.93,0,0,1,2.81.91,2.14,2.14,0,0,1,1,1.15l-.09,0a3.79,3.79,0,0,0-1.25-1,17.68,17.68,0,0,0-2.6-.75A20.51,20.51,0,0,1,88,231,1.91,1.91,0,0,1,86.91,229.72Zm1.61,4.17a4.42,4.42,0,0,0,2.55,3.29v.1a3.94,3.94,0,0,1-2.9-3.32Zm6.21-8.82a4.14,4.14,0,0,0-3-1.51,2.36,2.36,0,0,0-1.62.57,1.84,1.84,0,0,0-.65,1.44,2.7,2.7,0,0,0,1.3,2l.11.06-.07.11a2.41,2.41,0,0,1-1.7-2.21,2.06,2.06,0,0,1,.72-1.63,2.76,2.76,0,0,1,1.88-.63,3.79,3.79,0,0,1,1.94.47A2.79,2.79,0,0,1,94.82,225Zm3.76-2.57-.11.2a16.88,16.88,0,0,0-.91,1.7l-1,2.11-.07.09-.31-.13,0-.11c.25-.57.61-1.31,1.09-2.22l.87-1.7.07-.1Z"/><path class="cls-2" d="M114.59,221.82l-.15.3-.88,1.54a11,11,0,0,0-.83,2.07l0,.06-.13-.09,0-.17a3.74,3.74,0,0,0-1.06-2,3.26,3.26,0,0,0-2.11-.57c-.38,0-.77,0-1.15,0h-.16v14l1.52,1.4h-5.89l1.81-1.51V224h-.92a2.13,2.13,0,0,0-2.55,2.36h-.33a3.16,3.16,0,0,1,.78-2.1,3,3,0,0,1,2.1-.59h.92v-.63a11.19,11.19,0,0,0-1.25-.08,3.49,3.49,0,0,0-2.4.68,3.2,3.2,0,0,0-.81,2.28h-.15a24.46,24.46,0,0,0-1.72-4l-.08-.13ZM112,224.64a4.17,4.17,0,0,0-2.32-.64,4.4,4.4,0,0,0-.62,0l0,12.94,2,2.43h-6.58l-.3-.35h6.17l-1.73-2V223.66h.7a5.6,5.6,0,0,1,1.77.2A1.49,1.49,0,0,1,112,224.64Zm3.44-2a14.46,14.46,0,0,0-1.87,3.77l-.05.12-.29-.24,0-.12a12.94,12.94,0,0,1,1.84-3.71l.07-.07Z"/><path class="cls-2" d="M130.29,221.82,128,223.66V232a25.15,25.15,0,0,1-.15,3.29,4,4,0,0,1-.58,1.65c-.74,1.1-2.18,1.65-4.31,1.65s-3.82-.55-4.71-1.65c-.72-.86-1.07-2.53-1.07-5v-8.56l-1.75-1.57h6.08l-1.75,1.72V232l0,2a3.82,3.82,0,0,0,.8,2.73,3.68,3.68,0,0,0,2.69.8,3.13,3.13,0,0,0,2.87-1.22c.43-.66.64-2.08.64-4.25l0-8.34-2-1.84Zm.43.88L129,224.15v8c0,2.62-.2,4.33-.62,5.13-.84,1.62-2.48,2.42-4.93,2.42a6.55,6.55,0,0,1-4.77-1.58l.11,0,.45.26a7.94,7.94,0,0,0,4.07.92c2.37,0,3.94-.74,4.71-2.24a12.46,12.46,0,0,0,.62-4.87V224l1.92-1.57Zm-8.69-.18-1.26,1.27v9.57l0,.89.4,1.64a5.27,5.27,0,0,0,1.12,1.18l0,.12a2.72,2.72,0,0,1-1.5-1.28,6.19,6.19,0,0,1-.41-2.58v-9.67l1.46-1.41Z"/><path class="cls-2" d="M131.91,221.82H137c2.49,0,4.32.48,5.52,1.43,1.78,1.41,2.66,3.62,2.66,6.62s-.77,5.38-2.33,6.77a6.08,6.08,0,0,1-2.36,1.32,12.51,12.51,0,0,1-3.47.39h-5.48l1.77-1.35V223.3Zm.41,17.59-.19-.35h4.71a11.36,11.36,0,0,0,5.28-1q3.88-2.06,3.88-8,0-4-1.74-5.88l-.51-.56-.16-.18q2.73,1.71,2.73,6.55,0,5.1-2.7,7.5-2.07,1.86-6.78,1.86Zm3.49-16.51v14.46h.71V223.75a9.36,9.36,0,0,1,1.22-.1,5.31,5.31,0,0,1,1.67.21,3.83,3.83,0,0,1,1.23.78,6.73,6.73,0,0,0-2.92-.64c-.23,0-.52,0-.88.05v13.31a7.6,7.6,0,0,0,2.19-.24,3.57,3.57,0,0,0,1.42-.92c1.24-1.26,1.87-3.39,1.87-6.37s-.68-4.89-2-6a6.3,6.3,0,0,0-3.88-1Z"/><path class="cls-2" d="M161.42,221.82l-.2.25a12.58,12.58,0,0,0-2.09,3.69c-.09-.19-.15-.34-.19-.43a4.23,4.23,0,0,0-1.52-2,6.64,6.64,0,0,0-2.92-.45q-1,0-2.31.06v5.93H153v-5.25c.65-.05,1.28-.08,1.87-.08a6.31,6.31,0,0,1,2.41.34,3.37,3.37,0,0,1,1.38,1.36,2,2,0,0,1-.26-.2,6.54,6.54,0,0,0-1.51-1,7.15,7.15,0,0,0-1.83-.15l-1.47.05h-.27v4.9h2.37l1.66-2.28v5.55L155.7,230h-3.51v7.23H153v-6.63h2.8l.33.34h-2.81v6.29a13,13,0,0,0,3.74-.38,3.12,3.12,0,0,0,1.74-1.47l.68-1.17.15-.28a8.4,8.4,0,0,0,.84,2.27,10.3,10.3,0,0,0,1.64,2H147.68l1.95-1.5v-5.74a4.77,4.77,0,0,0-1.95.67l-.18-.27a4.61,4.61,0,0,1,2.13-.74V230l-.3,0a3.54,3.54,0,0,0-2.4,1,2.58,2.58,0,0,1,2.7-2.06v-5.5l-1.95-1.55Zm2.17,16.43-.67,1.16H148.85l-.21-.35h14.11l.44-.81a10.1,10.1,0,0,1-2.62-3.66l.41.15a10.77,10.77,0,0,0,2.4,3.3ZM158.25,227v5.7l-.32-.17v-5.69Zm3.79-4.29-.09.12a15.16,15.16,0,0,0-2.1,3.54l-.22-.27a15.52,15.52,0,0,1,2.23-3.66Z"/><path class="cls-2" d="M178.56,221.82a5.38,5.38,0,0,0-1.9,1.39,5.45,5.45,0,0,0-.64,2.95v12.19h-2.18l-6.08-11.8v7.57l.15,1.86a2.87,2.87,0,0,0,1.17,1.91l.11.09c-1.19-.4-1.78-1.67-1.78-3.8v-8.26l-.69-1.35V232a14.42,14.42,0,0,0,.46,4.62,3.14,3.14,0,0,0,2.18,1.6l1.12,1.2h-7l-.21-.35h6.45l-.67-.71h-6a3.65,3.65,0,0,0,2.09-1.52,7.51,7.51,0,0,0,.51-3.27V223.25L164,221.82h6.52l-1.83,1.23,6.23,12.16v-1.55l-5.34-10.41,1.8-1.22.25.24-1.6,1.08,4.89,9.61v-6.69a8.1,8.1,0,0,0-.36-3,3.81,3.81,0,0,0-1.81-1.45Zm.45,1-.24.38a1.94,1.94,0,0,0-1.34.86,4.46,4.46,0,0,0-.36,2.1v13.29H174.3l-.16-.35h2.59V226.25a4.84,4.84,0,0,1,.47-2.53A2.55,2.55,0,0,1,179,222.78Z"/><path class="cls-2" d="M194.07,221.82l-.16.3-.87,1.54a10.93,10.93,0,0,0-.84,2.07l0,.06-.13-.09,0-.17a3.68,3.68,0,0,0-1.06-2,3.25,3.25,0,0,0-2.1-.57c-.39,0-.78,0-1.16,0h-.16v14l1.52,1.4h-5.89l1.81-1.51V224H184a2.13,2.13,0,0,0-2.55,2.36h-.33a3.16,3.16,0,0,1,.78-2.1,3,3,0,0,1,2.1-.59H185v-.63a11.19,11.19,0,0,0-1.25-.08,3.49,3.49,0,0,0-2.4.68,3.2,3.2,0,0,0-.81,2.28h-.15a23.61,23.61,0,0,0-1.72-4l-.07-.13Zm-2.63,2.82a4.17,4.17,0,0,0-2.32-.64,4.49,4.49,0,0,0-.62,0l.05,12.94,2,2.43H184l-.3-.35h6.17l-1.72-2V223.66h.69a5.6,5.6,0,0,1,1.77.2A1.49,1.49,0,0,1,191.44,224.64Zm3.44-2A14.46,14.46,0,0,0,193,226.4l0,.12-.29-.24,0-.12a12.65,12.65,0,0,1,1.85-3.71l.06-.07Z"/><polygon class="cls-3" points="145.68 134.72 141.68 139.33 143.22 145.23 137.6 142.86 132.46 146.14 132.98 140.06 128.27 136.19 134.21 134.81 136.44 129.13 139.59 134.35 145.68 134.72"/><polygon class="cls-3" points="103.85 131.66 106.88 131.64 108.58 129.13 109.53 132.01 112.45 132.86 110 134.66 110.09 137.69 107.63 135.91 104.78 136.94 105.7 134.05 103.85 131.66"/><polygon class="cls-3" points="132.91 111.49 135.77 111.48 137.39 109.11 138.29 111.83 141.04 112.63 138.73 114.33 138.82 117.2 136.49 115.52 133.79 116.49 134.66 113.76 132.91 111.49"/><polygon class="cls-3" points="169.03 116.62 166.19 121.65 168.72 126.84 163.06 125.69 158.91 129.71 158.25 123.97 153.15 121.25 158.4 118.86 159.41 113.17 163.31 117.42 169.03 116.62"/><polygon class="cls-3" points="108.15 104.28 112.61 104.25 115.12 100.57 116.52 104.8 120.8 106.05 117.21 108.69 117.34 113.15 113.72 110.55 109.52 112.06 110.88 107.81 108.15 104.28"/><polygon class="cls-3" points="161.3 81.78 156.7 85.81 157.42 91.89 152.16 88.77 146.6 91.33 147.95 85.36 143.79 80.86 149.89 80.3 152.88 74.95 155.3 80.58 161.3 81.78"/><path d="M281.1,55.35l2.64,8.06L182.1,100.33A4,4,0,0,1,177,97.69h0a4.32,4.32,0,0,1,2.5-5.42Z"/><line class="cls-4" x1="187.21" y1="89.49" x2="189.53" y2="97.66"/></g></svg>