<svg xmlns="http://www.w3.org/2000/svg" width="316.32" height="382.19" viewBox="0 0 316.32 382.19"><defs><style>.cls-1{fill:#dad238;stroke-width:15px;}.cls-1,.cls-2{stroke:#000;stroke-miterlimit:10;}.cls-2{fill:none;stroke-width:11px;}</style></defs><g id="Layer_3" data-name="Layer 3"><path class="cls-1" d="M7.82,91.61A102.39,102.39,0,0,1,50.71,74.93L50.05,33.4a237.23,237.23,0,0,1,209.34-3.06v48c6.17-1.19,20.6-3,35.69,4.21a54.05,54.05,0,0,1,13.33,9.06c-5.47,44.68-9,80.65-11.23,104.85-4.11,45-4.37,58.17-14.3,76.6-11.5,21.35-27.68,33.7-59.57,57.53a542,542,0,0,1-67,42.79c-27.75-19.65-50.56-36.86-67.43-49.94-36-27.9-43.83-36-50.73-47C26.74,258.36,23.89,242.08,19.39,206,15.56,175.28,11.33,136.65,7.82,91.61Z"/><path class="cls-2" d="M34.65,109.26A84.2,84.2,0,0,1,69.88,95.55l-.54-34.11a194.84,194.84,0,0,1,172-2.52V98.35c5.07-1,16.92-2.48,29.32,3.46a44.71,44.71,0,0,1,10.95,7.45c-4.5,36.69-7.41,66.24-9.23,86.13-3.37,36.94-3.59,47.78-11.74,62.92-9.45,17.54-22.74,27.68-48.94,47.26a444.11,444.11,0,0,1-55.07,35.15c-22.8-16.14-41.53-30.28-55.4-41-29.58-22.92-36-29.58-41.66-38.59-9.35-14.87-11.69-28.25-15.38-57.89C41,178,37.54,146.26,34.65,109.26Z"/><path d="M107.39,114.12h52.2q33.25,0,47.32,9.19,17.9,11.5,17.9,32A35.08,35.08,0,0,1,218,176.9q-6.85,9.19-19.18,13.26t-39.18,4.07h-14.3V250.5l14.18,12.79H105.41l16.16-13.6V203.06c-.93-.07-1.59-.11-2-.11a37.31,37.31,0,0,0-16,3.6l-1-2.09q7.78-4.43,14-4.42h4.19l.93-.12v-5.69a35.18,35.18,0,0,0-3.6-.35q-12.45,0-19.89,6l-1.16-1.74q7.1-13,22.79-13h1.86v-57Zm111.49,12.44q7.1,3.49,11.4,12.27a44.83,44.83,0,0,1,4.3,19.94q0,25.23-19.53,36.27-14.78,8.37-50.46,8.37c-4,0-7.29-.07-10-.23v48l18.25,21.62H114.59l-3.13-3.14h54.76l-14.89-17.2V200q10.13.59,21.51.58,30,0,44.53-10.58T231.9,157.6a40.55,40.55,0,0,0-2.79-15.75Q226.32,135.16,218.88,126.56Zm-73.59-.46v58.25h1.51l3,.11c.31,0,.82,0,1.51-.11V132.49h12.79q14.88,0,21,2.62T195.51,146a22.84,22.84,0,0,0-10.75-8.31q-6.45-2.38-18.2-2.39h-12v49.07q23,0,33.77-6.75t10.76-21.16q0-16.16-9.59-23.48t-30.87-7.33Q153.19,125.63,145.29,126.1Z"/></g></svg>