<svg xmlns="http://www.w3.org/2000/svg" width="271.26" height="351.64" viewBox="0 0 271.26 351.64"><defs><style>.cls-1{fill:#1b578c;}.cls-1,.cls-3{stroke:#000;stroke-width:3px;}.cls-1,.cls-2,.cls-3{stroke-miterlimit:10;}.cls-2{stroke:#fefefe;}.cls-3{fill:#fefefe;}</style></defs><g id="Layer_4" data-name="Layer 4"><path class="cls-1" d="M30.45,62.78a150.46,150.46,0,0,0,54.39,5.36,150.37,150.37,0,0,0,55.91-16.09,130.11,130.11,0,0,0,47.49,15.32,130.49,130.49,0,0,0,52.85-4.59C239.15,83,236.62,113.2,235,150.1c-2.82,63.05,0,77.76-6.12,99.57C220.93,278,199,315,135.39,350c-14.78-5-41.65-16.48-65.11-42.13-5.48-6-35.19-39.46-40.08-89.56-3.94-40.5,12.05-53.74,8.68-105.76A246.34,246.34,0,0,0,30.45,62.78Z"/><path class="cls-1" d="M49.63,92.41A119.29,119.29,0,0,0,92.8,96.67,119.32,119.32,0,0,0,137.18,83.9a103.37,103.37,0,0,0,37.7,12.16,103.28,103.28,0,0,0,42-3.65c-1.54,16-3.55,40-4.86,69.32-2.25,50.05,0,61.73-4.87,79-6.27,22.47-23.72,51.87-74.18,79.65A124.35,124.35,0,0,1,81.24,287c-4.35-4.76-27.94-31.32-31.81-71.1-3.14-32.15,9.56-42.65,6.88-83.95A196,196,0,0,0,49.63,92.41Z"/><path class="cls-2" d="M79.22,218.27a9.12,9.12,0,0,0-.72,6.81c-7-4.61-8.3-8-8.09-10.39.29-3.2,3.4-3.86,6.34-10.21,1.82-3.92,1.3-5.12,3.07-7.15,2.66-3.07,6.74-3.68,9.36-4,15.63-1.68,22.17,3.65,26.17.77,7.68-5.55-3.17-34.76-14.43-76.73a61.24,61.24,0,0,1-2-11.61c-.94-12.35,2.44-18.82,4.21-28,3.22-16.59.43-38.2-10.59-52.72-4.62-6.08-9.68-9.6-8.81-10.85,1.09-1.59,11,1.46,17,8.68a32.27,32.27,0,0,1,5.87,11.61c1.16,4.85.54,8.3,3.36,12.3.36.5,3,4.21,4.43,3.66,3.35-1.28-1.73-24.5-2.69-28.85-1-4.83-1.79-7.32-1.27-7.53,1-.43,6.72,8.92,10.34,19.66,3.31,9.82,3.86,17.68,4.47,17.61,1.09-.11-1.57-25.17,1.53-25.78,2.12-.42,5.25,10.92,7.28,10.47,1.86-.42,1.45-10.51.51-18C133,6.46,130.29,1.4,131.69.61c1.93-1.1,10.77,6.45,13.91,17.1,3.2,10.83-1.1,19.39.77,20s8.23-8.63,11.23-19.53c2.3-8.36,1.45-13.11,2.17-13.15,1.75-.09,7.93,27.66,0,44.56-.28.59-1.73,3.64-1.4,3.83.93.54,14.11-23.75,17.1-22.47,2.1.89-.31,14.55-6,27.19-12.53,27.87-36.62,41.17-35.87,42.13.61.77,16.38-7.63,32.17-24.26,11-11.57,15.9-20.71,17.36-19.91,1.7.93-2,14.87-11,27.06-12.76,17.4-30.18,22.26-29.37,24s16.93-2,28-11.72c4.28-3.79,8.3-8.19,8.3-8.19,6.19-6.78,8.38-10.85,9.19-10.47s-.28,8.34-5.36,15.57c-7,10-17.65,13.12-17.11,14.3.39.85,6-.44,11-2.81,4.14-2,6.63-4.14,6.89-3.83s-4.86,4.51-7.14,7.92c-11,16.43,24.93,50.51,15.57,64.08-5.28,7.66-22,4.53-22,6.13,0,1.16,8.9,2.88,18.13,1.28,4.71-.82,7.6-2.17,7.92-1.53.42.86-4,5-9.71,6.38-7.26,1.76-13.38-1.72-13.53-1.28s5.93,4.07,14,4.6c3.4.22,5.78-.19,5.88.25s-2.15,1.6-13.54,4.85a16.7,16.7,0,0,0,6.64,3.32c2.19.52,3.77.39,3.83.77.17,1.13-13.49,3-13.53,5.87,0,2.15,7.61,3.45,7.4,5.11s-8.95,1.49-9.19,3.32,7.16,3.78,6.9,4.85-7.37-.34-7.92,1.27c-.43,1.27,3.51,3.38,3.07,4.34s-4.59-.61-5.11.26c-.76,1.26,6.33,7.41,12.77,11.74,27.08,18.25,56.7,13.87,57.6,20.37.67,4.9-15.31,13.39-31,13.34-20.06-.07-32.91-14-35.24-16.6a50.75,50.75,0,0,1-9.7,1,51.82,51.82,0,0,1-10.72-1c1.16,3.33.86,5.47,0,6.89-1.91,3.15-6.23,2.18-7.92,5.37-1.55,2.94.82,6.25-.51,7.15-1.61,1.08-5.74-3.44-6.89-2.56-1.44,1.11,3.92,9,2.3,10.47s-8.75-4.62-9.45-3.83c-.85,1,8.61,11.05,8.68,11s-9.55-12.55-12-11.23c-1.45.78-.18,6.33,2.56,14.29a7.5,7.5,0,0,1-1.28,3.32c-1.3,1.84-3.92,3.72-5.62,3.07-2.58-1-.13-6.67-3.57-10.47s-10.62-3.15-11.49-3.07c-4.78.47-7.28,2.76-9.19,1.28-1.27-1-1.5-3-1.28-4.34.47-2.93,3.44-4.7,3.32-4.85s-5,5.18-8.43,4.08a4.48,4.48,0,0,1-2.81-4.34c.24-2.78,4.13-4.83,4.35-4.59S90.12,276,87.9,275c-1.49-.68-1.68-5.25.51-7.92,2.46-3,7.36-2.9,10.47-1.53,3.66,1.62,3.51,4.42,6.13,5.11,4.56,1.18,10.42-5.93,13-10.22,1.23-2,6.29-10.71,3.57-21.44-1.92-7.59-6.66-12-10-15.07-2.84-2.65-9.22-8.43-18.63-9.32C90.15,214.29,82.16,213.53,79.22,218.27Z"/><path class="cls-3" d="M1.52,99.21Q2,124.77,2.88,151q.72,20.82,1.7,41.19a97.65,97.65,0,0,1,62.3-5.1A360,360,0,0,1,64.16,132c.28-10.47,1-20.37,2-29.62A96.23,96.23,0,0,0,1.52,99.21Z"/><path d="M8.57,111.86a44.35,44.35,0,0,1,22.59-6.07q9.39,0,15.48,4.08t6.09,10.36a12.46,12.46,0,0,1-4,9.1,23.31,23.31,0,0,1-10.9,5.74,78.78,78.78,0,0,0,8.31,16.39,53.19,53.19,0,0,0,10.52,12.22l-.67.22a58.35,58.35,0,0,0-12.93,6.38l-.66.44-.23-1.42q-2.82-17.13-7.92-29.05l-.18-.44a33,33,0,0,1-8.19,2.26l-.36,0v16.56l7.8,8.33H10.43l-.71-1.2H30.8L24.38,159V141.13l.93-.13a29.41,29.41,0,0,0,8.46-2,7.21,7.21,0,0,1-.31-.67L33,137.06c0-.09-.11-.27-.22-.53a78.65,78.65,0,0,1-10.37,1.73l-.49.08V158.1l5,5.27H7.42l5.75-5.27V143.22l-.35,0a45.1,45.1,0,0,0-4.65,1.28l-.36.14-.39-.89a26.82,26.82,0,0,1,3.05-1l2.35-.57.35-.09v-2.3A23.75,23.75,0,0,0,6.66,141l-.48.17a19.7,19.7,0,0,1,.88-2.87c.06-.12.27-.79.62-2,0-.09.08-.22.13-.4,1.33.09,2.37.14,3.11.14a16.89,16.89,0,0,0,2.21-.14V114.07A27,27,0,0,0,8.92,112Zm13.37-1.15v23.87a12.73,12.73,0,0,0,2.44-.22V112.57a22.1,22.1,0,0,1,5.85-.67c5.75,0,9.67,1.89,11.73,5.67a23.49,23.49,0,0,0-5.75-3.65,15.85,15.85,0,0,0-5.94-1,19.11,19.11,0,0,0-4.74.53v20.91l.49-.09q8.73-1.59,13-5a10.94,10.94,0,0,0,4.23-8.92,10.17,10.17,0,0,0-3.81-8.13A14.4,14.4,0,0,0,29.78,109,16.2,16.2,0,0,0,21.94,110.71Zm21.4,26.57a53.16,53.16,0,0,0,9.87,17.85,46.87,46.87,0,0,0,11.21,9.79,70.09,70.09,0,0,0-19.05,8.24l-.4.26-.88-.71a63.05,63.05,0,0,1,18-8.14q-12.76-8.5-20.07-27.2l-.26-.75q13.55-5.15,13.55-15.68c0-2.9-1.17-6-3.5-9.48a13.41,13.41,0,0,1,4.47,10.36Q56.31,132,43.34,137.28Z"/><path class="cls-3" d="M65.48,109.53a258.41,258.41,0,0,0,69.65,5.76c43.74-2.48,67.86-8.51,67.86-8.51,18.39-4.61,34.78-10.75,51.68-3.41a44.71,44.71,0,0,1,14.76,10.56A131.63,131.63,0,0,0,256.78,149a130,130,0,0,0-2.47,34c-2.9-4.86-8-11.59-16.52-15.32-10-4.4-19.61-2.34-28.63-.77-16.3,2.82-33.1,2.11-49.42,4.86-18.89,3.18-48.36,5.31-94.43.44"/><path d="M81.73,131.86l-1.88,1.9c1,2.74,2,5.47,3,8.19l.72-.32q-1.34-3.67-2.67-7.38l1.91-2,.47.25-1.82,1.9,2.52,7a2.11,2.11,0,0,0,.25-.18l.59-.44a4.65,4.65,0,0,0,.69-.55,13.38,13.38,0,0,0,1.44,3.8l-.76-.1a4.38,4.38,0,0,0-2.5.3q1.63,4.59,3.26,9.14c.9.78,1.8,1.54,2.7,2.3q-4.55-.33-9.09-.87c.83-.6,1.66-1.2,2.48-1.81-.66-1.82-1.33-3.64-2-5.47A16.81,16.81,0,0,0,78,150.94l-.41-.17a19.27,19.27,0,0,1,3.17-3.53l.14-.16-.34-.84A13.46,13.46,0,0,0,77,149.92l-.33-.57c-.62-1.08-1.42-2.34-2.39-3.76l-.18-.25a11.46,11.46,0,0,0-1.39,4.78,4.66,4.66,0,0,0,.39,2A22,22,0,0,0,74.94,155l.4.56c-3.24-.49-6.48-1.07-9.72-1.76l-.36-.56c3,.65,6.11,1.22,9.16,1.69l-.31-.42a14.06,14.06,0,0,1-1.55-2.5,4.8,4.8,0,0,1-.37-1.94,14.42,14.42,0,0,1,1.49-5.22l-.79-1c-.16.36-.35.89-.59,1.59l-.6,1.74a7.41,7.41,0,0,0-.48,2.36,4,4,0,0,0,.34,1.73A11.66,11.66,0,0,0,73,153.39l.32.4c-3-.49-6-1.06-9-1.72a7.82,7.82,0,0,0,4.07-2.74,22.81,22.81,0,0,0,3-6.4c0-.08.05-.16.07-.24a6.15,6.15,0,0,0-2.75-1.49,10.28,10.28,0,0,0,1.53-2.79l.3.34.81.9a13.17,13.17,0,0,0,1,1l.33-.74-.22-.21c-.6-.63-1.1-1.14-1.51-1.54-.05,0-.11-.1-.16-.16l.29-.34a19,19,0,0,1,1.83,1.77c.82-2.11,1.63-4.22,2.45-6.34l-1.91-2.35C76.2,131.17,79,131.55,81.73,131.86Zm-5.26,3c-1,2.39-1.91,4.76-2.86,7.12A33.86,33.86,0,0,1,76,145.13l.83,1.27.18.26.18-.17.25-.27a1.17,1.17,0,0,1,.2-.21,23.89,23.89,0,0,0-2.94-3.94L77,136.33Zm.81,2.21-2,4.93a1.32,1.32,0,0,1,.18.24l.74.94a21.11,21.11,0,0,1,1.51,2.23l.18.29A13.14,13.14,0,0,1,79.75,144C78.92,141.71,78.1,139.4,77.28,137.08Zm9.77,4.17a21.68,21.68,0,0,0,2,4.6l-.45-.08-1.46-.25c-.66-.12-1.14-.19-1.44-.22h-.36q1.52,4.13,3,8.23c1.34,1.29,2.67,2.56,4,3.82-3.47-.21-6.94-.5-10.42-.89l-.34-.53c3.19.37,6.37.65,9.56.86-1.08-1-2.16-2.06-3.24-3.1q-1.61-4.37-3.21-8.76a5.41,5.41,0,0,1,1.41,0,18.48,18.48,0,0,1,2.16.35l-.22-.42a17,17,0,0,1-1.55-4Z"/><path d="M117,127.27l.2.19a23.43,23.43,0,0,0-3.85,5,62.45,62.45,0,0,0-3.58,8.16q-2.62,6.91-5.25,13.77c.71.63,1.42,1.26,2.14,1.88-2.77,0-5.53,0-8.3-.12l2.38-1.9q-3.3-9.45-6.59-19c-.92-.83-1.84-1.68-2.77-2.53,3,.19,6,.32,8.93.39l-2.54,2.46q3,8.55,5.94,17c.23-.56.46-1.12.7-1.67q-2.66-7.5-5.31-15.07l1.84-1.77c.1.12.21.23.32.35L99.63,136q2.49,7.17,5,14.31,1.9-5.09,3.82-10.19a22,22,0,0,0,1.71-6.37,4.2,4.2,0,0,0-1.35-3.14l.34-.07A18,18,0,0,0,117,127.27Zm1,1.06.16.41q-3.44,2.82-7.09,12.45-2.53,6.66-5.08,13.27l2.81,3.26c-3.09,0-6.19,0-9.28-.07l-.4-.5c2.87.08,5.75.11,8.62.09l-2.27-2.65,5.17-13.52c.32-.86.64-1.71,1-2.57a35.17,35.17,0,0,1,3.06-6.14A15.84,15.84,0,0,1,118,128.33Z"/><path d="M135.29,131.8l-.29.37a20,20,0,0,0-2.91,5.4c-.12-.27-.21-.47-.27-.59a5.31,5.31,0,0,0-2.12-2.63,9.09,9.09,0,0,0-4.07-.36c-.9.06-2,.15-3.24.28v8.28l1.15-.07v-7.32c.91-.13,1.78-.23,2.61-.28a8.72,8.72,0,0,1,3.37.25,4.05,4.05,0,0,1,1.92,1.75l-.36-.24a8.12,8.12,0,0,0-2.1-1.22,10.18,10.18,0,0,0-2.56,0c-.38,0-1.07.09-2,.2l-.38,0v6.84l3.31-.21c.78-1.11,1.55-2.23,2.32-3.35v7.76l-2.32-2.84c-1.63.11-3.27.21-4.91.29v10.1l1.15-.07V144.9l3.91-.25.46.44-3.92.25v8.78a17.82,17.82,0,0,0,5.22-.86,4.9,4.9,0,0,0,2.43-2.23l1-1.72.22-.41A10.67,10.67,0,0,0,134,152a12.44,12.44,0,0,0,2.29,2.58c-6.72.58-13.44,1-20.17,1.27l2.74-2.19v-8a7,7,0,0,0-2.74,1.05l-.25-.37a6.78,6.78,0,0,1,3-1.15v-.84l-.43,0a5.12,5.12,0,0,0-3.35,1.48,3.79,3.79,0,0,1,3.78-3V135l-2.74-2C122.49,132.76,128.89,132.34,135.29,131.8Zm3,22.68-.93,1.7c-6.55.58-13.1,1-19.65,1.31l-.29-.48c6.57-.26,13.14-.72,19.7-1.29l.62-1.19a12.25,12.25,0,0,1-3.66-4.8l.58.17a13.05,13.05,0,0,0,3.35,4.32Zm-7.44-15.07v8l-.45-.2v-7.95Zm5.29-6.42-.13.17a23.76,23.76,0,0,0-2.93,5.19l-.31-.35a24,24,0,0,1,3.11-5.37Z"/><path d="M159.22,129.4a8.47,8.47,0,0,0-2.64,2.24,8.08,8.08,0,0,0-.9,4.21v17l-3,.32q-4.24-7.78-8.5-15.61v10.59l.21,2.57a3.53,3.53,0,0,0,1.64,2.5l.14.11q-2.48-.59-2.48-5.06c0-.57,0-1.13,0-1.7v-9.84l-1-1.79v10.36q0,4.93.64,6.4a3.85,3.85,0,0,0,3,1.93l1.56,1.51c-3.25.33-6.5.65-9.75.94l-.29-.46c3-.27,6-.56,9-.86l-.94-.9c-2.8.28-5.59.55-8.39.8a5.76,5.76,0,0,0,2.92-2.39,10.85,10.85,0,0,0,.72-4.64V133.27c-.8-.59-1.6-1.18-2.39-1.78,3-.27,6.07-.57,9.1-.88l-2.55,2,8.7,16.08V146.5l-7.46-13.76,2.52-2,.34.31-2.23,1.74,6.83,12.71v-9.36a10.71,10.71,0,0,0-.51-4.13,4.46,4.46,0,0,0-2.53-1.75Zm.63,1.27-.32.57a3.18,3.18,0,0,0-1.88,1.4,6.73,6.73,0,0,0-.5,3v18.55l-3.87.42c-.07-.15-.15-.31-.23-.46l3.62-.39V135.87a7.41,7.41,0,0,1,.65-3.61A4.12,4.12,0,0,1,159.85,130.67Z"/><path d="M179.73,127.75l-.19.36a57.76,57.76,0,0,0-2.81,5.94l-.16.43-.24-.1a6.93,6.93,0,0,0-1.92-4.13,4.36,4.36,0,0,0-3.65-1.21,5.27,5.27,0,0,0-3.82,2.41c-1.28,1.8-1.92,4.67-1.92,8.63q0,5.11,1.77,7.81a4.88,4.88,0,0,0,4.92,2.37,5.82,5.82,0,0,0,4-2.11,9.05,9.05,0,0,0,1.79-5c0-.51.25-.79.61-.82s.7.31.71,1.09a9.81,9.81,0,0,1-.8,3.7c-1.11,2.76-3.41,4.31-6.91,4.69a8.3,8.3,0,0,1-7.43-2.47c-1.83-2-2.75-4.84-2.75-8.57a14.51,14.51,0,0,1,2.86-9,10,10,0,0,1,7.11-4.26,12.19,12.19,0,0,1,4.59.5,6.23,6.23,0,0,0,2.23.28,3.21,3.21,0,0,0,1.71-.69Zm.65,15.41a11.63,11.63,0,0,1-2.49,7.05,9.09,9.09,0,0,1-6.16,3,8.74,8.74,0,0,1-5.6-1.25v-.14a9.25,9.25,0,0,0,5.56.9,8.7,8.7,0,0,0,5.81-2.89,7.92,7.92,0,0,0,1.62-2.67,14.08,14.08,0,0,0,.7-3.74l0-.42Zm-5.86-11.76a4.66,4.66,0,0,0-3.1-1q-4.66.51-4.66,9.4a17.28,17.28,0,0,0,1.08,6.62,5,5,0,0,0,3,3.15v.18c-1.41-.14-2.54-1.1-3.39-2.9a16.52,16.52,0,0,1-1.27-7q0-9.3,5.11-9.86a3.91,3.91,0,0,1,3.19,1.19Zm6.53-2.92-.2.36a60.69,60.69,0,0,0-3.13,6.42l-.49-.18.2-.47q.9-2,1.59-3.3c.47-.9.95-1.8,1.43-2.7l.19-.34Z"/><path d="M182.27,126.94q4.3-.42,8.6-.78c-.84.89-1.69,1.78-2.53,2.68v19.23h.79l.16,0v-19.1l1.94-2.13c.09.12.17.25.25.37l-1.74,1.93V148c.54,0,1.06,0,1.55-.06a7,7,0,0,0,4.32-1.61,7.46,7.46,0,0,0,2-4.33q1.69,4.8,3.48,6.48c-6.26.39-12.53.92-18.79,1.54l2.49-2.28V129Zm20.55,21.31-.81,1.66c-6.26.37-12.52.89-18.78,1.5l-.45-.44c6.34-.62,12.69-1.15,19-1.53l.53-1.17a18.7,18.7,0,0,1-3.17-5.22l-.07-.19.57.18.13.3a24.18,24.18,0,0,0,2.88,4.73Z"/><path d="M219.1,124.79l-1.87,2.14q1.49,3.9,3,7.83l.72-.4c-.88-2.36-1.77-4.73-2.66-7.08l1.91-2.21.47.2-1.82,2.11,2.52,6.71.25-.19.59-.5a5.92,5.92,0,0,0,.69-.61,12.57,12.57,0,0,0,1.44,3.69l-.76,0a4.55,4.55,0,0,0-2.5.52q1.64,4.43,3.26,8.87L227,148c-3-.09-6.06-.11-9.09-.09l2.48-2.09c-.66-1.76-1.33-3.51-2-5.25a20.13,20.13,0,0,0-3,3.83l-.41-.1a22.62,22.62,0,0,1,3.17-4l.14-.19-.34-.78a16,16,0,0,0-3.55,4.19L214,143c-.62-1-1.42-2.09-2.39-3.34l-.18-.21a13.21,13.21,0,0,0-1.39,5.05,4.15,4.15,0,0,0,.39,1.9,16.8,16.8,0,0,0,1.86,2.56l.4.5q-4.86.12-9.72.41l-.36-.47c3.05-.17,6.11-.31,9.16-.4-.1-.12-.2-.25-.31-.37a11,11,0,0,1-1.55-2.19,4.3,4.3,0,0,1-.37-1.87,16.72,16.72,0,0,1,1.49-5.52l-.79-.8c-.16.39-.35,1-.59,1.71l-.6,1.86a8.46,8.46,0,0,0-.48,2.47,3.55,3.55,0,0,0,.34,1.66,8.77,8.77,0,0,0,1.44,1.76l.32.33c-3,.1-6,.25-9,.42a11.73,11.73,0,0,0,4.07-3.8,29.6,29.6,0,0,0,3-7.07c0-.09.05-.17.07-.26a4.77,4.77,0,0,0-2.75-.87,13.59,13.59,0,0,0,1.53-3.14l.3.27.81.72a9.78,9.78,0,0,0,1,.78l.33-.81a1.84,1.84,0,0,1-.22-.17c-.6-.51-1.1-.91-1.51-1.22l-.16-.12.28-.41a13.26,13.26,0,0,1,1.84,1.39c.82-2.27,1.63-4.54,2.45-6.8l-1.91-2C213.57,124.85,216.34,124.8,219.1,124.79Zm-5.25,3.76c-.95,2.54-1.91,5.08-2.86,7.63a23.66,23.66,0,0,1,2.36,2.71c.27.38.55.75.83,1.13l.17.23a1.47,1.47,0,0,0,.18-.2l.26-.31a3.05,3.05,0,0,1,.19-.24,17.6,17.6,0,0,0-2.93-3.44c.77-2.05,1.54-4.09,2.3-6.14C214.19,129.46,214,129,213.85,128.55Zm.81,2.07-2,5.26.18.21.74.81a17.69,17.69,0,0,1,1.51,2l.18.26a17.34,17.34,0,0,1,1.84-2Q215.89,133.9,214.66,130.62Zm9.77,3.06a20.17,20.17,0,0,0,2,4.48l-.45-.06-1.46-.16c-.66-.07-1.14-.11-1.44-.11l-.36,0c1,2.66,2,5.34,3,8,1.34,1.21,2.67,2.43,4,3.67q-5.21-.21-10.42-.19l-.34-.49c3.19,0,6.37,0,9.56.15-1.08-1-2.16-2-3.24-2.95l-3.21-8.53a5.52,5.52,0,0,1,1.41-.14,14.7,14.7,0,0,1,2.16.2l-.22-.4a16.16,16.16,0,0,1-1.55-3.86Z"/><path d="M260.72,122.57A16.46,16.46,0,0,0,257,127.3a54,54,0,0,0-3,8.52q-1.56,5.4-3.11,10.83l.36,1.46,2.21,2.33c-2.74-.45-5.47-.84-8.21-1.16l2.36-1.69q-1.59-6-3.18-11.92-1.56,5.46-3.1,11l3.1,4c-3.07-.35-6.13-.62-9.2-.82l-.36-.51c2.86.18,5.71.43,8.57.74q-1.35-1.71-2.7-3.39,1.7-6,3.4-11.95l-.6-2.21q-1.84,6.54-3.68,13.11c.09.38.19.76.28,1.14l2.11,2.18q-4.11-.42-8.22-.66l2.44-1.82q-2.61-9.61-5.23-19.15l-2.7-2.38q4.4.15,8.8.49c-.83.69-1.65,1.39-2.47,2.09q2.05,7.54,4.12,15.14l.63-2.13q-1.74-6.33-3.47-12.65l1.64-1.34.41.32-1.49,1.22q1.58,5.77,3.15,11.58,1.92-6.84,3.85-13.64l1.69.2Q247.7,135,250,143.78l.57-1.95q-2.07-7.77-4.14-15.49l.51.07q1.94,7.26,3.87,14.56c.56-1.95,1.12-3.88,1.69-5.82a34.07,34.07,0,0,0,1.58-7.19,4.11,4.11,0,0,0-1.8-3.32,36.32,36.32,0,0,0,4.52-1,17.81,17.81,0,0,0,3.6-1.35C260.53,122.37,260.63,122.47,260.72,122.57Zm1.08,1.61a15.44,15.44,0,0,0-3.55,4.62,44.35,44.35,0,0,0-2.85,7.81q-1.59,5.52-3.19,11.08c1.15,1.53,2.31,3.07,3.46,4.62-3.08-.56-6.16-1-9.23-1.41l-.42-.54c2.85.36,5.7.77,8.55,1.27q-1.45-1.94-2.92-3.85,1.66-5.76,3.32-11.5a45.17,45.17,0,0,1,2.82-7.73,17.69,17.69,0,0,1,3.6-4.77C261.53,123.91,261.67,124,261.8,124.18Z"/></g></svg>