<svg xmlns="http://www.w3.org/2000/svg" width="357.98" height="223.14" viewBox="0 0 357.98 223.14"><defs><style>.cls-1{fill:#590e1c;stroke:#590e1c;stroke-miterlimit:10;stroke-width:4px;}</style></defs><g id="Layer_7" data-name="Layer 7"><path class="cls-1" d="M356,99.75a3.17,3.17,0,0,0-3.65-2.47q-19.94,2.94-39.86,6c-.47-.66-1.58-1.59-4.11-3.12a62.76,62.76,0,0,0-17.49-7.24c-14.77-3.55-22.15-5.33-25.61-6-7.3-1.44-13.51-2.55-18.19-3.35-4.06-3.89-24.66-29-26.31-30.91.82-1.47,1.65-2.94,2.47-4.42l6.24,0a31.21,31.21,0,0,1,2.77-14.62c2.78-5.91,6-7.4,5.83-11.48-.23-4.9-5-8.45-9-11.48A38.92,38.92,0,0,0,216,4.39c-8-2.44-15.6-2.72-15.72-2.12-.07.39,3.08,1.08,3,1.59s-5.37.44-13.68-.27c1.27.48,5.95,2.28,5.74,3.27s-6.1.62-7.24.53c.67.42,4.87,3.08,4.5,3.88s-5.37-.74-6.09-1c1,.58,3.94,2.38,3.62,3.45-.43,1.41-6.31.69-6.89.61,4.14,3.29,5.25,4.76,5,5.3-.5.88-4.61-.78-5,.09s4.44,3.81,4,4.95c-.24.57-1.83.73-6.54-.27Q187,28.84,186.47,30q-.45,1-5.74-.35a7,7,0,0,0,2.91,4.24c2.23,1.29,4.85.49,5,1.15.09.31-.36.94-3.26,2.38-13.45-.86-22.36,2.29-27.73,5-8.55,4.37-13,6.64-17.48,11.66-3,3.32-6.83,8.79-12.45,8.92a8.88,8.88,0,0,1-2.92-.38c-4-1.2-6.51-5.44-21.9-14.46C86.8,38.73,78.57,34.05,70.61,36.53S58.31,47.39,54.1,55.69a64.07,64.07,0,0,0-6.71,24.46L20.46,76.53C22.22,83.11,24,88.64,25.4,92.87c6.07,17.94,9.22,20.91,11.22,22.42a28.56,28.56,0,0,0,12.45,5.57c3.11.38,6.72.09,10.77,2.47,1.29.76,3.27,1.92,3.09,2.91-.37,2.09-9.67.47-22.43,2.3-13.33,1.91-14,5.23-26,5.74-5.54.24-12.39-.18-12.54.88s5.54,2.62,5.3,3.62c-.11.47-1.36.23-2.12,1.06s-.52,2.63-.09,4A8.32,8.32,0,0,1,9,143.37c3.58.48,6.65,3.45,6.19,4.68-.51,1.41-5.41.06-6.19,1.86-.38.86.37,2.07,1.32,3.18,4.88-1.87,6.14-2.23,6.18-2.12s-4.47,1.56-4.94,4.33a4.22,4.22,0,0,0,1.06,3.17l9-.88-8.39,2.21,1.67,2.74,6,.17-5.12,1.59.88,2.74q5.58-2,5.83-1.5t-4.42,3.35c.68,1.15,1.36,2.3,2,3.45,2.6-1.57,6.51-3.8,7-3.18s-2.95,4.1-5.12,6.18c3.9-.49,5.9-.51,6-.09s-1.22,1.07-3.94,2.11l1.38,2.48,3.71-1.5c-.82,1.42-1.65,2.83-2.47,4.24,17.83-4.36,30.23-7.33,37.26-9,15.68-3.73,24.07-5.65,30.56-13.24A32.67,32.67,0,0,0,101.34,146L124,142.14l16.42,14.48c-25,16.7-35.31,22.5-38.67,23.31-.23.06-3.07.72-6.89,1.77-2,.56-3.73,1.05-5,1.41.77,2.94,1.53,5.89,2.3,8.83q2.5-2.9,3.36-2.47,1.5.75-2.12,11.83a98.09,98.09,0,0,0,10.06,12c4.2,4.27,9,8.39,9.72,7.77s-4.5-5.65-6.19-14a28.1,28.1,0,0,1,0-10.77l58.69-33.54c-1.13,1.31-2.33,2.76-3.58,4.4-5.32,6.94-6.73,10.73-12.9,16.24a55.71,55.71,0,0,1-9.89,7.07c1.48,2.35,2.95,4.71,4.42,7.06,1.08-1.57,2-2.27,2.65-2.12,1.37.32,2,4.08,1.76,11.31a61.9,61.9,0,0,0,14,8.47c5.15,2.26,11.13,4,11.65,3S168.22,214.62,164,208a26.87,26.87,0,0,1-3.89-11.3L209.25,142l-44-28.43,20.84-32.14,33.21-.71,22.25,16.95,46.05,7.49c.1-.14.24-.35.4-.6,1.18-1.9,1.19-2.71,1.59-2.82.76-.23,1.64,2.53,3.18,4.51l-13.25,2q-49.29,7.56-98.5,15.49l10.19,6.59,163-27.38A3.11,3.11,0,0,0,356,99.75ZM178,148.14c.61,3.12-2.53,4.7-8.09,10.19-4.56-4.28-14.49-14.17-12.4-17.43C159.79,137.33,176.67,141.43,178,148.14Z"/></g></svg>