<svg xmlns="http://www.w3.org/2000/svg" width="215.2" height="141.49" viewBox="0 0 215.2 141.49"><defs><style>.cls-1{fill:#590e1c;stroke:#590e1c;stroke-miterlimit:10;stroke-width:4px;}</style></defs><g id="Layer_7" data-name="Layer 7"><path class="cls-1" d="M2.92,53.72,99.47,80,106,76.69Q76.82,68.94,47.59,61.41l-7.87-2c1.05-1.1,1.75-2.71,2.19-2.53.23.09.19.58.79,1.8l.2.38,28.2-1.73,14.44-8.88,20,2.43,10.62,20.62L87.91,86l26.28,36a16.27,16.27,0,0,1-3,6.57c-2.92,3.73-6.73,4.92-6.47,5.59s4-.06,7.2-1.11a37.63,37.63,0,0,0,8.92-4.26c.32-4.37.9-6.6,1.75-6.71q.63-.08,1.47,1.44l3.08-4a33.68,33.68,0,0,1-5.53-4.86c-3.38-3.69-4-6.06-6.79-10.56-.66-1.06-1.29-2-1.9-2.87l33.35,23.75a16.94,16.94,0,0,1-.65,6.49c-1.52,4.9-5,7.59-4.57,8s3.53-1.77,6.32-4.09a60.4,60.4,0,0,0,6.79-6.63q-1.51-6.9-.56-7.26c.36-.14,1,.43,1.87,1.69l1.92-5.18c-.71-.29-1.7-.69-2.9-1.15-2.24-.86-3.91-1.43-4-1.48-2-.69-7.87-4.81-21.9-16.38l10.77-7.74,13.38,3.71a19.85,19.85,0,0,0,3.29,9c3.45,5,8.39,6.63,17.62,9.83,4.13,1.43,11.42,4,21.91,7.67l-1.24-2.7,2.15,1.13,1-1.42c-1.58-.79-2.32-1.29-2.25-1.5s1.29-.12,3.61.41c-1.18-1.38-3.05-3.68-2.71-4s2.54,1.23,4,2.33l1.43-2c-1.75-1.33-2.57-2.1-2.45-2.29s1.26.22,3.42,1.26l.69-1.6-3-1.26,3.63.25,1.18-1.55L200,106.71l5.37,1.07a2.59,2.59,0,0,0,.83-1.85c-.12-1.69-2.79-2.78-2.72-2.91s.77.23,3.6,1.65c.64-.6,1.16-1.29,1-1.83-.36-1.13-3.4-.62-3.62-1.49s1.83-2.38,4-2.45a5.09,5.09,0,0,1,2.32.5c.34-.78.64-1.78.18-2.4s-1.17-.48-1.21-.76c-.08-.62,3.43-1.27,3.41-1.87s-4.18-.81-7.5-1.29c-7.18-1-7.38-3.06-15.3-5-7.58-1.87-13.28-1.45-13.38-2.73,0-.62,1.22-1.2,2-1.57,2.59-1.19,4.75-.8,6.64-.84a17.22,17.22,0,0,0,7.84-2.61c1.3-.79,3.37-2.39,8.11-12.84,1.12-2.45,2.5-5.68,4-9.54l-16.44.56a38.86,38.86,0,0,0-2.57-15.15c-2-5.25-4.09-10.54-8.8-12.54s-9.88.35-20.17,5.08c-9.82,4.5-11.6,6.9-14.07,7.39a5.63,5.63,0,0,1-1.78,0c-3.38-.42-5.37-4-7-6.12-2.4-3.3-4.94-4.93-9.83-8.08-3.07-2-8.25-4.41-16.4-4.71-1.67-1-1.9-1.45-1.83-1.63.15-.39,1.69.26,3.1-.39a4.24,4.24,0,0,0,2-2.38c-2.18.32-3.34.27-3.48-.13s1.13-1.48,3.9-3c-2.9.32-3.85.13-4-.23-.21-.72,2.93-2.12,2.69-2.74s-2.78.2-3-.36c-.15-.34.6-1.16,3.3-2.89-.36,0-3.94.09-4.12-.79-.13-.66,1.76-1.57,2.39-1.86-.45.1-3.55.74-3.73.22s2.52-1.85,3-2.07c-.69,0-4.26-.09-4.33-.75s2.86-1.42,3.65-1.63c-5-.07-8.24-.27-8.26-.66s1.93-.54,1.91-.78-4.63-.65-9.6.33a23.72,23.72,0,0,0-8.25,2.94C81.29,7.19,78.22,9,77.79,12c-.36,2.45,1.5,3.54,2.82,7.27a19,19,0,0,1,.79,9l3.75.4,1.23,2.81c-1.11,1.07-15,14.94-17.72,17-2.87.2-6.68.5-11.17.93-2.12.2-6.67.83-15.79,2.07a38.54,38.54,0,0,0-11,3.31,8.55,8.55,0,0,0-2.67,1.64q-11.82-3-23.66-6A1.93,1.93,0,0,0,2.05,51.7,1.89,1.89,0,0,0,2.92,53.72ZM119.15,88.46c1.07,2.09-5.51,7.45-8.52,9.75-3-3.64-4.81-4.78-4.26-6.62C107.57,87.62,118,86.17,119.15,88.46Z"/></g></svg>