<svg xmlns="http://www.w3.org/2000/svg" width="279.5" height="351.38" viewBox="0 0 279.5 351.38"><defs><style>.cls-1{fill:#31873c;}.cls-2{fill:none;}.cls-2,.cls-4{stroke:#000;}.cls-2,.cls-3,.cls-4{stroke-miterlimit:10;stroke-width:3px;}.cls-3{stroke:#fff;}.cls-4{fill:#fefefe;}</style></defs><g id="Layer_4" data-name="Layer 4"><path class="cls-1" d="M26.71,40.18c2.05.88,37.71,14.64,78.11-5A91.87,91.87,0,0,0,141.36,2.86c3,5,19.88,29,53.27,41.67,30.79,12,53.84,7.85,59.05,6.63-8.39,38.43-15.32,87.52-15.51,146.17A829.1,829.1,0,0,0,246,312.28a163.18,163.18,0,0,0-51.29,9.54,207.86,207.86,0,0,0-52.06,27.69C128,338.12,109,326.2,85.75,318.74a146,146,0,0,0-51.62-7.05c2.54-39.15,3.79-81,3-124.94A1373.51,1373.51,0,0,0,26.71,40.18Z"/><path class="cls-2" d="M26.71,40.18c2.05.88,37.71,14.64,78.11-5A91.87,91.87,0,0,0,141.36,2.86c3,5,19.88,29,53.27,41.67,30.79,12,53.84,7.85,59.05,6.63-8.39,38.43-15.32,87.52-15.51,146.17A829.1,829.1,0,0,0,246,312.28a163.18,163.18,0,0,0-51.29,9.54,207.86,207.86,0,0,0-52.06,27.69C128,338.12,109,326.2,85.75,318.74a146,146,0,0,0-51.62-7.05c2.54-39.15,3.79-81,3-124.94A1373.51,1373.51,0,0,0,26.71,40.18Z"/><path class="cls-3" d="M211.47,154.53c-.25-.78-3.71.68-9.19,0-6-.74-6.32-3-12.94-4.43s-8.31.52-11.57-1.7c-3.9-2.65-4.28-7.22-6.47-7.15-1.43.05-2.58,2.05-3.4,4.09a37.54,37.54,0,0,0-15.32-12.26c-20.51-8.55-48.67,3.74-54.47,20.77-7.08,20.79,19.13,48.77,38.47,61.62,17.12,11.37,30.22,11.78,38.81,26.89,1.27,2.24,9.38,17,3.4,31-8.52,19.93-40.9,27-54.47,15.66-10.75-9-9.86-29.81-9.53-37.45.51-11.92,3.57-13.41,1.36-20.08-2.51-7.59-9.25-14.09-21.1-25.54-3.31-3.19-5.9-5.48-6.81-9.53-1.71-7.56,4-14,2.72-15s-8.42,3.11-10.55,9.88c-2.86,9,6.24,13.92,11.57,31.31,3.83,12.5,3.35,23.69,3.07,30.3-.68,15.65-4.34,17.27-3.07,25.19,3.19,19.92,29.6,30.52,31.66,31.32,21.15,8.19,47.19,3.59,64-12.59,3.59-3.46,14.48-14.24,16.34-31,2.62-23.52-14.52-41.23-20.08-47-11-11.39-25.17-18.41-34.73-23.15-12-6-19.48-7.82-23.83-16-3.21-6-4.9-15.85.34-22.13,5.78-6.92,16.42-5.29,22.13-4.42,3.62.55,10.22,1.56,13.28,6.47,1.76,2.82.43,3.84,2,7.83,2.19,5.39,6.86,8.19,12.94,11.91,3.45,2.11,5.71,3.47,9.19,4.26,5.72,1.29,11.5.29,11.57-.68s-4.42-.84-9.7-3.58c-8-4.15-13.66-12.5-12.08-14.81,1-1.46,4,.77,10.89.34,4.78-.29,8.16-1.66,14.13-4.08C204.18,159.16,211.84,155.7,211.47,154.53Z"/><path class="cls-2" d="M55.47,94.69c1.58.67,28.91,11.21,59.87-3.82a70.43,70.43,0,0,0,28-24.79c2.3,3.85,15.23,22.21,40.82,31.94,23.6,9.16,41.26,6,45.26,5.08a533.14,533.14,0,0,0-11.9,112,637.4,637.4,0,0,0,6,88.11,125,125,0,0,0-39.3,7.3,159.46,159.46,0,0,0-39.9,21.22c-11.22-8.72-25.82-17.86-43.61-23.58a112.16,112.16,0,0,0-39.56-5.4c1.94-30,2.9-62.08,2.28-95.76A1048.17,1048.17,0,0,0,55.47,94.69Z"/><path class="cls-4" d="M1.77,93.68C22.23,81.36,74.53,53.63,146.11,55.89A264.77,264.77,0,0,1,277.17,95.72a76.31,76.31,0,0,0-19.06,64.34,298.56,298.56,0,0,0-46-19.07c-13.93-4.45-44.89-14.35-75.91-13.61-52.63,1.25-92.57,32.82-110,48.68Z"/><path d="M46.59,95.07a21.68,21.68,0,0,0-1.81,3.78q-1.32,3.74-1.76,4.62l-.11.17-.13-.34a13.82,13.82,0,0,0-1-2.45,3.3,3.3,0,0,0-1.17-1.11,5.22,5.22,0,0,0-4.48-.32,8.39,8.39,0,0,0-3.84,2.64,6,6,0,0,0-1.53,3.85c0,2.49,1.81,3.52,5.46,3.18l3.65-.3c5.22-.39,7.86,1.67,7.85,6A10.72,10.72,0,0,1,45,121.71a14,14,0,0,1-6.63,4.57,25.13,25.13,0,0,1-5.51,1.09l-2.52.25a11.32,11.32,0,0,0-2.51.54,7.63,7.63,0,0,0-2.7,1.87l-.17-.25a45.84,45.84,0,0,0,3.73-9.27l.38,0c.3,2.21,1.21,3.68,2.71,4.44s3.49.71,5.94-.11A10.44,10.44,0,0,0,42.37,122a6.22,6.22,0,0,0,1.72-4.24A3.67,3.67,0,0,0,41.7,114c-1.15-.46-3.49-.48-7,0-2.72.39-4.68.19-5.9-.64S27,111,27,108.78a10.39,10.39,0,0,1,2.43-6.57,13.54,13.54,0,0,1,6.37-4.41,21.16,21.16,0,0,1,5.92-1A10.3,10.3,0,0,0,44,96.5,6.53,6.53,0,0,0,46.35,95Zm0,14.13c2,.93,3,2.73,3,5.37a12.62,12.62,0,0,1-3.23,8.12,16.74,16.74,0,0,1-7.82,5.39,18.58,18.58,0,0,1-4.22.94c-1.15.1-2.3.22-3.44.34a10.25,10.25,0,0,0-2.58.62A7.35,7.35,0,0,0,26,131.32l-.25-.54A7.52,7.52,0,0,1,28,129.4a13.27,13.27,0,0,1,2.94-.66l3.32-.35a19.19,19.19,0,0,0,4.2-.92,15.73,15.73,0,0,0,7.39-5.16A12.13,12.13,0,0,0,49,114.57a6.28,6.28,0,0,0-2.36-5.24Zm-18.11,5.22.73.16c.47.7,1.86.92,4.16.69l3.47-.3a19.23,19.23,0,0,1,4.74,0,2.32,2.32,0,0,1,1.68,1.45l-.15.14a4.15,4.15,0,0,0-2.12-1,21.52,21.52,0,0,0-4.36.13,31.76,31.76,0,0,1-6.26.25A2,2,0,0,1,28.48,114.42Zm2.69,6.21a4.77,4.77,0,0,0,4.27,4.16V125c-2.68.11-4.29-1.21-4.85-4C30.78,120.84,31,120.73,31.17,120.63ZM41.59,102a5.23,5.23,0,0,0-5.11-.92,5.8,5.8,0,0,0-2.73,1.91,4.46,4.46,0,0,0-1.07,2.85c0,1.1.72,2,2.18,2.61l.17.06-.11.21c-1.9-.22-2.85-1.14-2.85-2.8a5,5,0,0,1,1.21-3.23,6.66,6.66,0,0,1,3.15-2.17,5.9,5.9,0,0,1,3.26-.27,3.06,3.06,0,0,1,2.05,1.62Zm6.35-6.35-.19.39c-.6,1.19-1.11,2.32-1.53,3.38-1,2.48-1.59,3.86-1.72,4.15l-.11.19-.52-.06.09-.22c.42-1.11,1-2.56,1.82-4.37.5-1.13,1-2.25,1.49-3.37l.11-.21Z"/><path d="M50.89,93.57q5.22-1.5,10.48-2.81l-3.1,3.83v23.67l.18-.05.79-.13.2-.06V94.51l2.37-3,.31.41L60,94.63v23.25c.66-.1,1.29-.23,1.89-.38a10.32,10.32,0,0,0,5.3-2.84A10.89,10.89,0,0,0,69.6,109c1.38,3.72,2.81,6.17,4.27,7.34q-11.57,2.41-23,5.67c1-1.12,2-2.24,3-3.35V95.53ZM76,115.68c-.33.73-.66,1.47-1,2.2q-11.57,2.37-23,5.59L51.5,123q11.56-3.27,23.3-5.69l.64-1.53A19.19,19.19,0,0,1,71.55,110l-.09-.23.7.12.16.34a25.33,25.33,0,0,0,3.54,5.31Z"/><path d="M106.76,75l.14.16-.23.27a54.77,54.77,0,0,0-6.6,9.13L98.63,87q-4.16,7.13-8.31,14.37v9l3.24,2.45c-3.63.53-7.24,1.12-10.86,1.78q1.6-1.77,3.21-3.51v-9q-2.67-3.63-5.34-7.22l-1.15-1.62a23,23,0,0,0-2.59-3.08,17.32,17.32,0,0,0-3-2.07L73.6,88q5.59-1.17,11.22-2.15l-2.76,3.35Q85.77,94,89.48,99c.23-.42.47-.83.71-1.24q-3.31-4.49-6.62-8.89l2.34-2.62.47.28c-.68.73-1.35,1.47-2,2.21q3.09,4.19,6.17,8.43c1.67-2.86,3.34-5.72,5-8.55,1.44-2.48,2.16-4.27,2.16-5.39,0-1-.63-1.94-1.9-3a56.54,56.54,0,0,0,10.71-5.14Zm1,1.22v.91c-.07.08-.15.16-.22.25a32.39,32.39,0,0,0-3.24,3.89q-1.35,1.92-4,6.43-4,6.82-8.09,13.74v8.68c1.32,1.39,2.65,2.78,4,4.19q-7,1-14,2.23l-.27-.55q6.49-1.18,13-2.11l-3.39-3.67v-8.84q4.11-7.06,8.24-14c.43-.74.87-1.47,1.3-2.2A42.07,42.07,0,0,1,107.77,76.17Z"/><path d="M129.93,81.14l-.27.52-1.53,2.71A20.88,20.88,0,0,0,126.67,88l0,.11-.22-.15-.07-.28a6.11,6.11,0,0,0-1.85-3.41,5.5,5.5,0,0,0-3.68-.77,19.49,19.49,0,0,0-2,.22l-.27,0v24l2.65,2.25q-5.14.3-10.27.78l3.14-2.87v-22l-1.59.11A4.08,4.08,0,0,0,108,90.43l-.59.06a6.09,6.09,0,0,1,1.36-3.74,5.69,5.69,0,0,1,3.67-1.36l1.35-.1.24,0V84.19a17.15,17.15,0,0,0-2.17,0,6.65,6.65,0,0,0-4.18,1.56,6.1,6.1,0,0,0-1.41,4.08l-.27,0a35.41,35.41,0,0,0-3-6.53l-.13-.21Q116.38,81.6,129.93,81.14Zm-4.59,5a6.84,6.84,0,0,0-4-.89,8.79,8.79,0,0,0-1.08.13l.09,22.25q1.8,2,3.58,4-5.75.3-11.48.8c-.18-.18-.35-.37-.52-.55q5.37-.48,10.76-.78c-1-1.08-2-2.14-3-3.21V84.82l1.21-.1a9.59,9.59,0,0,1,3.1.16A2.4,2.4,0,0,1,125.34,86.18Zm6-3.69a25.93,25.93,0,0,0-3.26,6.58l-.09.22-.5-.4.07-.2a22.21,22.21,0,0,1,3.22-6.49,1.34,1.34,0,0,1,.11-.14Z"/><path d="M132.05,81.08q5.28-.15,10.58-.12l-3.06,2.94v9.57c.34,0,.75.1,1.21.13V84.12l2.46-2.39.45.41c-.78.74-1.55,1.49-2.32,2.25v9.23l.74.07c1.16.11,2.27.17,3.36.18a34.55,34.55,0,0,0,4-.14V83.54L146.75,81c3.47.06,6.93.18,10.4.35L154,84.16v23.07l2.72,2.51q-5.17-.24-10.35-.33l3.08-2.53V97.49a17.23,17.23,0,0,1-3.89.37c-1.26,0-2.57-.1-3.92-.23l-.31,0V107l3.71,4.24q-5.82-.08-11.64.06l-.58-.59q5.49-.14,11-.08l-3.06-3.32V97.1l.66,0c2,.15,3.41.24,4.3.26a11.47,11.47,0,0,0,3.75-.5v-.8a38.37,38.37,0,0,1-4.93.22c-1,0-1.74,0-2.2-.08l-2.28-.2c-.09,0-.26,0-.51-.05v11l2.88,2.39q-5.2,0-10.4.12l3-2.66V97.15a3.67,3.67,0,0,0-3,1.53l-.48-.21a4.87,4.87,0,0,1,3.49-1.87v-.82a4.83,4.83,0,0,0-4,2l-.34-.21a5.91,5.91,0,0,1,4.32-3.88v-10Zm26,1.56-2.29,2.08v22.59c1.24,1.46,2.49,2.92,3.73,4.39q-5.84-.33-11.68-.45l-.56-.61c3.65.07,7.31.2,11,.4l-3-3.49V84.47l2.5-2.32Z"/><path d="M184.77,83.88l-.36.37a18.68,18.68,0,0,0-3.63,5.9c-.14-.36-.26-.63-.33-.8a8.48,8.48,0,0,0-2.64-3.74,12,12,0,0,0-5.07-1.31c-1.12-.1-2.47-.19-4-.25V94.24l1.44.12v-9a30.82,30.82,0,0,1,3.25.15,11.24,11.24,0,0,1,4.19,1,6.57,6.57,0,0,1,2.4,2.6l-.45-.38a12.58,12.58,0,0,0-2.62-2,12.67,12.67,0,0,0-3.18-.6c-.48,0-1.34-.1-2.56-.15l-.47,0v8.41l4.12.4,2.9-3.61v9.55c-1-1.34-1.93-2.68-2.9-4-2-.21-4.08-.41-6.12-.58v12.43l1.44.12V97.33c1.62.14,3.24.3,4.86.47l.59.63q-2.44-.25-4.89-.48v10.81a23.91,23.91,0,0,0,6.5,0,4.59,4.59,0,0,0,3-2.17l1.19-1.87.27-.45a16.53,16.53,0,0,0,1.44,4.08,22.62,22.62,0,0,0,2.85,3.79q-12.53-1.74-25.14-2.5c1.14-.78,2.28-1.57,3.42-2.34V97.43a7.78,7.78,0,0,0-3.42.93l-.31-.48a7.44,7.44,0,0,1,3.73-1v-1l-.54-.09a5.81,5.81,0,0,0-4.18,1.4,4.15,4.15,0,0,1,4.72-3.24V84.43l-3.42-2.88Q172.83,82.27,184.77,83.88Zm3.75,28.76-1.16,1.83q-12.2-1.74-24.48-2.56l-.36-.62q12.3.81,24.55,2.54l.76-1.29a20.86,20.86,0,0,1-4.54-6.91l.72.36a22.31,22.31,0,0,0,4.15,6.25Zm-9.26-20.53v9.79l-.56-.35V91.76Zm6.58-6.53-.16.17A22,22,0,0,0,182,91.36l-.38-.51a21.83,21.83,0,0,1,3.87-5.78Z"/><path d="M190,87.29a19.4,19.4,0,0,1,11.36-1.11,15.89,15.89,0,0,1,7.75,3.58,7.78,7.78,0,0,1,3,5.84,4.94,4.94,0,0,1-2,4.12,9.57,9.57,0,0,1-5.45,1.74,50.19,50.19,0,0,0,4.16,9,37.41,37.41,0,0,0,5.25,7.27l-.33,0a22.24,22.24,0,0,0-6.46,1.78l-.33.16c0-.25-.08-.49-.11-.73a73.79,73.79,0,0,0-4-15.32l-.09-.24a15.25,15.25,0,0,1-4.12.37h-.17v8.28c1.3,1.62,2.61,3.25,3.91,4.89q-5.75-1.09-11.51-2l-.36-.65q5.31.81,10.6,1.8c-1.07-1.34-2.15-2.67-3.22-4v-8.92l.46,0a14.38,14.38,0,0,0,4.25-.22,2.3,2.3,0,0,1-.15-.36l-.23-.68a2,2,0,0,0-.11-.29,43.73,43.73,0,0,1-5.2-.08h-.25v9.88c.85,1,1.69,2,2.54,3.08q-4.92-.89-9.85-1.62l2.9-2.19v-7.44h-.18a20.88,20.88,0,0,0-2.34.28l-.18,0-.2-.47a11.78,11.78,0,0,1,1.54-.28l1.18-.1.18,0v-1.15a11.18,11.18,0,0,0-3.28.08l-.25,0a9.23,9.23,0,0,1,.45-1.37c0-.06.13-.38.31-.95l.07-.19q1,.21,1.56.3a9.61,9.61,0,0,0,1.12.11V88.75a17.36,17.36,0,0,0-2.12-1.37Zm6.73.51V99.74a5.88,5.88,0,0,0,1.23.1V89a10.36,10.36,0,0,1,2.93.2c2.89.53,4.85,1.88,5.89,4a15.8,15.8,0,0,0-2.89-2.41,9,9,0,0,0-3-1.06,9.33,9.33,0,0,0-2.38-.17V99.94h.24c2.92,0,5.09-.42,6.5-1.28a4.38,4.38,0,0,0,2.12-4,6.28,6.28,0,0,0-1.91-4.45,8.67,8.67,0,0,0-4.82-2.54A7.6,7.6,0,0,0,196.77,87.8Zm10.73,15.32a34.82,34.82,0,0,0,4.94,10A34.14,34.14,0,0,0,218,119.3a26.68,26.68,0,0,0-9.5,2l-.2.1-.44-.45a24.08,24.08,0,0,1,9-2.07c-4.24-3.84-7.58-9.08-10-15.81l-.13-.41c4.52-.78,6.77-2.86,6.77-6.38a10.45,10.45,0,0,0-1.75-5.13A8.38,8.38,0,0,1,214,96.8C214,100.21,211.83,102.27,207.5,103.12Z"/><path d="M217.87,90.07q5.22,1.26,10.41,2.69L225.34,95v23c.93,1,1.85,2.06,2.77,3.1q-5.12-1.41-10.24-2.64c1-.61,2-1.2,3.06-1.8V93.59Zm11.4,4.23L227,95.92v22.57q1.84,2.58,3.68,5.18-5.69-1.61-11.41-3l-.55-.73q5.35,1.31,10.67,2.79l-3-4.17v-23l2.47-1.81Z"/><path d="M256.3,101.86a5.39,5.39,0,0,0-3.15,1.23q-1.08,1.29-1.08,4.68v21l-3.64-1.28q-5.09-11.91-10.22-23.64v12c0,.33,0,.66,0,1,.09,1.09.17,2.18.26,3.27a7.22,7.22,0,0,0,2,3.9l.17.21c-2-1.31-3-3.79-3-7.47,0-.69,0-1.38,0-2.08V102.53l-1.17-2.68V112.6q0,6.08.78,8.19a8.25,8.25,0,0,0,3.67,3.9c.63.89,1.26,1.77,1.89,2.67q-5.86-1.92-11.8-3.61c-.11-.23-.23-.46-.35-.69q5.49,1.55,10.91,3.3l-1.12-1.58q-5.07-1.61-10.16-3c1.78-.15,3-.67,3.54-1.59s.87-2.71.87-5.37V97.06q-1.44-1.66-2.9-3.31,5.53,1.59,11,3.38l-3.08,1.11q5.25,12.12,10.47,24.4V120q-4.47-10.53-9-20.92l3-1.11c.14.18.28.37.41.56l-2.68,1q4.11,9.6,8.21,19.3V107.27a16.32,16.32,0,0,0-.61-5.36,10.26,10.26,0,0,0-3-3.54Q251.44,100,256.3,101.86Zm.75,1.92-.38.52a2.16,2.16,0,0,0-2.24.64,6.56,6.56,0,0,0-.59,3.4v22.84c-1.54-.57-3.09-1.12-4.63-1.66l-.28-.69c1.44.5,2.89,1,4.33,1.54v-22c0-2.08.26-3.43.78-4.06S255.57,103.49,257.05,103.78Z"/></g></svg>