<svg xmlns="http://www.w3.org/2000/svg" width="119.71" height="108.05" viewBox="0 0 119.71 108.05"><defs><style>.cls-1,.cls-2{stroke:#000;stroke-miterlimit:10;}.cls-2{fill:#fff;}</style></defs><g id="Layer_8" data-name="Layer 8"><path class="cls-1" d="M17.34,23.68A53.86,53.86,0,0,1,28.86,10.52c3.71-3,8.48-6.94,15.83-8.73C48.45.88,57.53-1.34,64,3.61c3.65,2.8,6.61,8,7.58,12.79A26.17,26.17,0,0,0,74,24.65,34.87,34.87,0,0,0,76.88,29c2.38,3.63,2.31,6.6,3.15,12.37.47,3.19,1.53,7.5,3.64,16.13.83,3.36,1.94,7.6,3.4,12.49a59.87,59.87,0,0,1,17.22,3.64c5.68,2.12,11.32,4.32,13.82,9.7.67,1.43,1.42,3,1,4.88-1,4-7,5.52-16.37,8.09-19.08,5.24-12.06,4-20.25,5.82-15.34,3.41-23,5.11-32.25,5.4a94.83,94.83,0,0,1-38.08-7.46c-5.06-2.2-9.26-4.64-10.91-9.22A13.87,13.87,0,0,1,3.16,78.37c2.71-3.7,6.93-4.83,15.28-6.92a88.74,88.74,0,0,1,12.71-2.22A23.4,23.4,0,0,0,36.87,61c.85-2.1,1.25-4.6,2.06-9.58.63-3.93,1-5.89,1.21-8.73s.22-4,.85-5.95c.73-2.25,1.33-2.44,2.3-5.09s1.52-4.14,1.22-6.06a8.7,8.7,0,0,0-4.61-6.06c-1.79-.91-3.78-1.06-10.31.48A112.09,112.09,0,0,0,17.34,23.68Z"/><path class="cls-2" d="M25.79,78.21c-.49.6,4.7,7.56,13.23,11.38,7.49,3.36,14.57,3,19.4,2.67a37.72,37.72,0,0,0,14.06-2.91c8.42-3.7,13.48-10.2,13.1-10.67S79,85.75,67.88,88.87s-21.24,0-24.38-1C32.38,84.31,26.29,77.59,25.79,78.21Z"/></g></svg>