<svg xmlns="http://www.w3.org/2000/svg" width="323.58" height="201.84" viewBox="0 0 323.58 201.84"><defs><style>.cls-1{fill:#cec52c;stroke:#cec52c;stroke-miterlimit:10;stroke-width:4px;}</style></defs><g id="Layer_7" data-name="Layer 7"><path class="cls-1" d="M321.55,90.25A2.86,2.86,0,0,0,318.26,88q-18,2.66-36,5.37a13,13,0,0,0-3.72-2.82A57.05,57.05,0,0,0,262.77,84c-13.34-3.2-20-4.8-23.12-5.42-6.59-1.3-12.2-2.3-16.42-3-3.67-3.5-22.27-26.14-23.76-27.9l2.23-4,5.63,0a28.39,28.39,0,0,1,2.5-13.2c2.51-5.33,5.44-6.67,5.27-10.36-.21-4.43-4.48-7.63-8.14-10.37a35.65,35.65,0,0,0-11.79-5.58C187.93,2,181.08,1.7,181,2.24c-.07.35,2.78,1,2.71,1.44s-4.86.4-12.36-.24c1.15.43,5.37,2.05,5.18,2.95S171,7,170,6.86c.61.39,4.4,2.79,4.07,3.51s-4.85-.67-5.5-.87c.89.51,3.56,2.14,3.27,3.1-.39,1.28-5.69.63-6.22.56,3.74,3,4.74,4.29,4.46,4.79-.44.79-4.15-.71-4.54.08s4,3.43,3.59,4.46c-.21.52-1.65.66-5.9-.24q5.82,4,5.34,5-.4.87-5.18-.32A6.29,6.29,0,0,0,166,30.78c2,1.17,4.37.44,4.54,1,.08.28-.32.84-2.95,2.15-12.14-.78-20.18,2.06-25,4.54-7.72,4-11.72,6-15.78,10.53-2.69,3-6.17,7.93-11.25,8.05a8.44,8.44,0,0,1-2.63-.34c-3.59-1.09-5.87-4.91-19.77-13C78.56,35.16,71.13,30.94,64,33.17S52.84,43,49,50.47A57.75,57.75,0,0,0,43,72.55L18.66,69.29c1.6,5.94,3.18,10.93,4.47,14.74,5.48,16.2,8.32,18.88,10.12,20.25a25.85,25.85,0,0,0,11.24,5c2.81.34,6.07.08,9.73,2.23,1.16.68,3,1.73,2.79,2.63-.34,1.88-8.73.42-20.25,2.07-12,1.73-12.64,4.72-23.44,5.18-5,.22-11.19-.16-11.32.8s5,2.36,4.79,3.27c-.11.42-1.24.2-1.92,1s-.47,2.37-.08,3.58a7.64,7.64,0,0,1,3.51-.4c3.23.43,6,3.11,5.59,4.23s-4.88,0-5.59,1.67c-.34.79.33,1.88,1.2,2.87,4.4-1.68,5.53-2,5.58-1.91s-4,1.41-4.47,3.91a3.84,3.84,0,0,0,1,2.87l8.13-.8-7.57,2,1.51,2.47,5.42.16-4.62,1.44c.26.82.53,1.65.8,2.47,3.35-1.22,5.11-1.67,5.26-1.36s-1.19,1.32-4,3l1.83,3.11c2.35-1.41,5.88-3.42,6.3-2.87S22,156.61,20,158.49c3.52-.44,5.33-.46,5.42-.08s-1.11,1-3.56,1.91l1.25,2.24,3.35-1.36c-.75,1.28-1.49,2.56-2.24,3.83,16.11-3.94,27.3-6.62,33.65-8.13,14.15-3.37,21.73-5.11,27.58-12A29.48,29.48,0,0,0,91.69,132l20.41-3.51,14.82,13.07C104.39,156.67,95,161.91,92,162.64c-.21.05-2.77.65-6.22,1.59-1.84.51-3.37,1-4.47,1.28.7,2.66,1.39,5.31,2.08,8,1.5-1.74,2.51-2.49,3-2.23.9.45.27,4-1.92,10.68a89.11,89.11,0,0,0,9.09,10.84c3.79,3.86,8.13,7.57,8.77,7s-4.05-5.11-5.58-12.6a25.1,25.1,0,0,1,0-9.72l53-30.28c-1,1.18-2.1,2.49-3.23,4-4.8,6.27-6.08,9.69-11.64,14.67a50.79,50.79,0,0,1-8.93,6.38l4,6.37c1-1.41,1.78-2.05,2.4-1.91q1.86.42,1.59,10.2a55.61,55.61,0,0,0,12.6,7.66c4.65,2,10.05,3.63,10.52,2.71s-5-3.28-8.77-9.25a24.44,24.44,0,0,1-3.51-10.2q22.17-24.72,44.33-49.43l-39.7-25.67,18.81-29,30-.64,20.08,15.31,41.58,6.76.36-.54c1.07-1.72,1.08-2.45,1.43-2.55.7-.21,1.49,2.29,2.88,4.07l-12,1.83q-44.49,6.81-88.92,14l9.2,6L320,93.12A2.8,2.8,0,0,0,321.55,90.25ZM160.89,133.94c.55,2.81-2.29,4.24-7.31,9.2-4.11-3.87-13.08-12.79-11.19-15.74C144.46,124.18,159.7,127.87,160.89,133.94Z"/></g></svg>