<svg xmlns="http://www.w3.org/2000/svg" width="325.65" height="202.27" viewBox="0 0 325.65 202.27"><defs><style>.cls-1{fill:#cec52c;stroke:#cec52c;stroke-miterlimit:10;stroke-width:4px;}</style></defs><g id="Layer_7" data-name="Layer 7"><path class="cls-1" d="M3.65,94.81l148.16,23.6,9.2-6.06q-44.74-6.82-89.55-13.3c-4-.59-8-1.16-12-1.74,1.38-1.8,2.16-4.32,2.85-4.12.37.1.38.84,1.47,2.55.14.23.27.41.36.55l41.76-7.16,20.07-15.56,30.15.38,19.16,29-39.7,26.16,45,49.32a24.61,24.61,0,0,1-3.44,10.29c-3.75,6-9.24,8.42-8.74,9.38s5.89-.73,10.56-2.82a56.39,56.39,0,0,0,12.6-7.8q-.36-9.84,1.51-10.28c.63-.14,1.43.49,2.43,1.91q2-3.23,3.95-6.45a50.1,50.1,0,0,1-9-6.34c-5.64-5-7-8.39-11.83-14.65-1.15-1.48-2.25-2.79-3.29-4l53.54,30a25.36,25.36,0,0,1,.08,9.78c-1.47,7.55-6.2,12.12-5.5,12.72s5-3.23,8.75-7.13a88.85,88.85,0,0,0,9.05-11q-3.37-10-2-10.72.77-.39,3.06,2.22c.67-2.68,1.35-5.36,2-8-1.11-.32-2.65-.75-4.5-1.24-3.48-.92-6.06-1.5-6.27-1.55-3.06-.71-12.5-5.9-35.29-20.87L213,128.63,233.54,132a29.75,29.75,0,0,0,6.36,12.93c5.95,6.85,13.58,8.52,27.84,11.79,6.4,1.47,17.68,4.07,33.9,7.89l-2.27-3.83,3.38,1.34,1.23-2.27c-2.47-.92-3.67-1.55-3.59-1.88s1.9-.38,5.45,0c-2-1.87-5.14-5-4.7-5.57s4,1.43,6.36,2.83l1.82-3.14c-2.84-1.7-4.18-2.71-4-3s1.92.12,5.3,1.32l.78-2.5-4.66-1.4,5.45-.21,1.5-2.49L306,141.87l8.19.73a3.89,3.89,0,0,0,.93-2.9c-.45-2.5-4.6-3.69-4.52-3.89s1.19.22,5.63,1.88c.86-1,1.52-2.11,1.18-2.9-.73-1.62-5.17-.36-5.64-1.64-.42-1.11,2.34-3.83,5.59-4.29a7.52,7.52,0,0,1,3.53.37c.38-1.22.66-2.76-.11-3.61s-1.83-.52-1.94-.94c-.22-.91,4.92-2.44,4.79-3.33s-6.36-.53-11.4-.7c-10.86-.37-11.49-3.38-23.61-5-11.6-1.57-20,0-20.38-1.91-.17-.91,1.62-2,2.78-2.67,3.66-2.19,6.95-2,9.76-2.33a25.84,25.84,0,0,0,11.27-5.15c1.8-1.39,4.63-4.11,10-20.45,1.27-3.84,2.81-8.88,4.37-14.87L282,71.76a58.19,58.19,0,0,0-6.28-22.16c-3.89-7.5-7.79-15.05-15.14-17.27s-14.68,2.13-29.25,10.83c-13.9,8.31-16.16,12.18-19.77,13.3a8.37,8.37,0,0,1-2.64.37c-5.11-.08-8.65-5-11.38-8-4.12-4.52-8.16-6.54-16-10.44-4.9-2.45-13-5.24-25.21-4.36-2.65-1.29-3.06-1.86-3-2.14.17-.6,2.55.11,4.56-1.08a6.31,6.31,0,0,0,2.62-3.87q-4.8,1.23-5.21.37c-.33-.7,1.44-2.4,5.33-5.1-4.27.94-5.72.81-5.93.29-.44-1,4-3.63,3.57-4.52s-4.12.76-4.57,0c-.29-.49.71-1.84,4.44-4.85-.53.07-5.86.77-6.25-.51-.31-1,2.37-2.62,3.26-3.15-.66.21-5.18,1.67-5.53.93s3.45-3.18,4.06-3.57c-1,.1-6.36.55-6.58-.42s4-2.57,5.19-3c-7.54.71-12.33.93-12.43.35s2.79-1.12,2.72-1.47c-.11-.54-7-.22-14.26,2A35.49,35.49,0,0,0,116.57,10c-3.65,2.78-7.93,6-8.09,10.49-.14,3.71,2.81,5,5.38,10.38a28.34,28.34,0,0,1,2.63,13.25l5.66,0,2.28,4c-1.48,1.78-20,24.71-23.65,28.27-4.24.76-9.87,1.82-16.49,3.18-3.13.65-9.82,2.32-23.21,5.65a57.44,57.44,0,0,0-15.81,6.71C43,93.3,42,94.15,41.56,94.76Q23.44,92.18,5.32,89.67A2.87,2.87,0,0,0,2,91.94,2.82,2.82,0,0,0,3.65,94.81Zm178.86,33c1.92,3-7,12-11.11,15.93-5.09-4.95-8-6.36-7.43-9.19C165.11,128.39,180.41,124.54,182.51,127.76Z"/></g></svg>